<?xml version="1.0" encoding="UTF-8" standalone="no"?>
<!-- Created with Inkscape (http://www.inkscape.org/) -->

<svg
   version="1.1"
   id="svg1"
   width="1034.4271"
   height="1022.4777"
   viewBox="0 0 1034.4271 1022.4777"
   sodipodi:docname="Book6c.svg"
   inkscape:version="1.3.2 (091e20ef0f, 2023-11-25)"
   xmlns:inkscape="http://www.inkscape.org/namespaces/inkscape"
   xmlns:sodipodi="http://sodipodi.sourceforge.net/DTD/sodipodi-0.dtd"
   xmlns="http://www.w3.org/2000/svg"
   xmlns:svg="http://www.w3.org/2000/svg">
  <defs
     id="defs1" />
  <sodipodi:namedview
     id="namedview1"
     pagecolor="#ffffff"
     bordercolor="#000000"
     borderopacity="0.25"
     inkscape:showpageshadow="2"
     inkscape:pageopacity="0.0"
     inkscape:pagecheckerboard="0"
     inkscape:deskcolor="#d1d1d1"
     showgrid="false"
     inkscape:zoom="0.71259124"
     inkscape:cx="508.70679"
     inkscape:cy="514.3201"
     inkscape:window-width="1920"
     inkscape:window-height="1011"
     inkscape:window-x="0"
     inkscape:window-y="0"
     inkscape:window-maximized="1"
     inkscape:current-layer="layer1" />
  <g
     inkscape:groupmode="layer"
     id="layer1"
     inkscape:label="Layer 1"
     transform="translate(-38.906124,-14.692287)">
    <path
       style="fill:#000000"
       d="m 617.33333,1035.1281 c -14.52622,-3.8881 -18.96216,-7.0693 -46.86491,-33.608 L 543.33333,975.71147 528,975.51402 c -14.06061,-0.18105 -15.88669,-0.50376 -22,-3.88793 -11.54986,-6.39371 -15.91488,-9.13471 -18.82523,-11.82125 -8.12901,-7.50388 -13.50041,-26.63187 -12.16282,-43.31277 l 0.65549,-8.1746 -64.93004,-64.89984 -64.93005,-64.89983 -8.57034,2.00999 c -4.71369,1.1055 -15.08009,3.25728 -23.03645,4.78174 -14.25908,2.73208 -20.34638,5.03624 -29.22767,11.06324 -6.12857,4.15897 -39.0416,36.42069 -43.43796,42.57838 -1.94421,2.72313 -8.71343,12.04659 -15.0427,20.71879 -6.32928,8.67221 -14.39159,21.1442 -17.91625,27.71552 -3.52466,6.57133 -7.71468,13.74787 -9.31116,15.94787 -4.77097,6.57455 -12.20576,20.75656 -15.72723,30 -1.81596,4.76667 -5.45493,13.83544 -8.08661,20.15282 -2.63168,6.31738 -5.36265,14.41738 -6.06883,18 -3.36201,17.05641 -5.33389,24.99892 -6.49462,26.15965 -0.69707,0.69708 -8.00574,1.80907 -16.24148,2.4711 -14.90798,1.1984 -50.824172,9.3795 -60.245522,13.723 -2.42029,1.1158 -7.400528,3.1583 -11.067195,4.539 -3.666666,1.3807 -9.634135,4.4102 -13.261041,6.7324 -7.44086,4.764 -12.738959,5.5395 -12.738959,1.8646 0,-1.2965 2.984764,-5.9465 6.632809,-10.3333 3.648045,-4.3868 6.648045,-9.2085 6.666667,-10.7149 0.01862,-1.5064 1.983858,-5.6742 4.367191,-9.26172 2.383333,-3.58753 6.44067,-10.46399 9.016304,-15.28104 5.744626,-10.74381 19.066297,-29.29944 26.859966,-37.41299 3.18472,-3.31543 6.80976,-7.59756 8.05564,-9.51584 1.24589,-1.91829 4.36491,-4.78545 6.93116,-6.37148 2.56626,-1.58604 5.03733,-4.05391 5.49127,-5.48416 0.45395,-1.43026 1.6314,-2.60047 2.61657,-2.60047 0.98516,0 3.04428,-2.55 4.57581,-5.66667 1.64076,-3.33892 13.45861,-16.62074 28.76945,-32.33333 14.29166,-14.66667 25.99211,-26.92012 26.001,-27.2299 0.0299,-1.0428 12.97137,-15.3447 24.87222,-27.48687 6.49583,-6.62756 15.39575,-16.22756 19.77758,-21.33334 4.38184,-5.10577 12.93184,-14.5124 19,-20.90362 6.06817,-6.39121 11.03131,-12.39121 11.0292,-13.33333 -0.002,-0.94212 1.4455,-5.31294 3.2169,-9.71294 10.40024,-25.83324 15.63023,-39.30016 16.66849,-42.92037 1.10577,-3.8556 0.6635,-4.59877 -7.49172,-12.58856 -4.76678,-4.67009 -12.27364,-12.69107 -16.68191,-17.8244 -4.40828,-5.13334 -10.13765,-10.97202 -12.73193,-12.97484 -4.62075,-3.56729 -4.99127,-3.62513 -18.17978,-2.83764 -17.96023,1.07242 -22.08058,-0.21763 -34.47633,-10.79426 -8.00493,-6.83018 -11.02002,-10.48939 -14.54261,-17.64933 -4.26383,-8.66657 -4.4455,-9.66971 -4.48226,-24.75053 l -0.0383,-15.71785 -34.80545,-34.97111 C 117.30826,549.737 101.1255,533.04366 100.48957,531.8748 99.85364,530.70594 96.033333,526.93936 92,523.50462 76.907026,510.65163 55.492509,487.26488 50.852047,478.56703 40.580629,459.3148 40.004465,457.83367 39.170558,448.53774 38.094476,436.54218 40.311094,423.62169 45.665458,410.67949 49.633859,401.08734 51.017842,399.46229 78.607174,372 94.446777,356.23333 114.29,336.71385 122.70323,328.62337 c 19.77346,-19.01492 93.84372,-91.97555 170.83047,-168.27131 33.47348,-33.17304 62.42209,-60.908185 64.33025,-61.633667 1.90816,-0.725481 3.46938,-2.331794 3.46938,-3.569583 0,-1.237789 16.65,-18.874999 37,-39.1938 30.22598,-30.179636 37.83235,-37.098612 41.5463,-37.791735 2.50046,-0.466653 4.82206,-0.5727 5.1591,-0.235661 0.33704,0.33704 -0.41548,4.808753 -1.67225,9.937141 -1.88605,7.696168 -2.02362,10.543362 -0.78786,16.30552 0.82346,3.839649 2.14727,7.764461 2.94179,8.721806 0.79453,0.957344 1.07759,2.697017 0.62903,3.86594 -0.44856,1.168922 0.0843,3.410067 1.18417,4.980321 1.09985,1.570255 1.99972,4.240335 1.99972,5.933513 0,1.693177 0.9,3.423867 2,3.845976 1.1,0.42211 2.0003,1.453279 2.00066,2.291487 3.6e-4,0.838209 3.12894,4.218066 6.95241,7.510795 6.72279,5.789587 7.31714,6.015189 18.04457,6.849323 9.8682,0.767323 17.18044,0.225723 32.10478,-2.377921 2.43965,-0.425613 4.74202,-1.571992 5.11636,-2.547507 0.37434,-0.975514 3.68955,-2.773071 7.36714,-3.994571 5.47324,-1.817918 7.24505,-1.921994 9.76461,-0.573569 1.69294,0.906035 15.34188,14.324616 30.33097,29.819072 14.9891,15.49445 41.02434,41.47855 57.85609,57.74244 l 30.60319,29.57072 5.50125,-2.46298 c 5.19525,-2.32598 14.70687,-10.45139 25.37686,-21.67845 3.65575,-3.84662 5.78733,-5 9.24057,-5 3.41184,0 5.41864,-1.05917 8.36509,-4.41499 2.13203,-2.42825 7.61515,-7.07825 12.18471,-10.33334 14.77645,-10.52587 18.73151,-14.72673 23.45282,-24.91033 5.74984,-12.40207 11.81721,-31.042779 13.04663,-40.082997 0.84631,-6.223161 1.30464,-7.025826 3.80669,-6.666667 4.32097,0.620258 8.35965,9.376752 11.56511,25.074984 2.83913,13.90424 2.63127,22.99682 -0.84212,36.83588 -1.73872,6.92762 2.33921,2.57718 8.17421,-8.72044 4.3397,-8.40247 9.27655,-15.23899 16.8497,-23.33334 5.89135,-6.29682 11.4446,-11.448763 12.34055,-11.448763 0.89595,0 3.00579,-1.862209 4.68853,-4.138242 2.45888,-3.325813 3.75549,-3.999052 6.60448,-3.429254 2.94869,0.589738 5.55988,-0.976694 15.52454,-9.313032 12.37702,-10.354492 19.89464,-14.982208 21.5878,-13.289057 0.80844,0.808446 -0.95106,8.973752 -4.56174,21.169585 -1.3611,4.597391 1.67109,2.192212 4.22158,-3.348631 4.54237,-9.86809 16.27517,-23.12182 25.84265,-29.192644 7.70462,-4.88879 10.04434,-5.698477 17.55598,-6.075448 6.51176,-0.326792 9.16395,-1.055769 10.66667,-2.931826 2.70778,-3.380521 8.82503,-6.274235 15.66666,-7.410985 C 923.4771,39.852487 924,40.020103 924,42.52358 c 0,1.516885 -2.11844,6.069624 -4.70764,10.117197 -5.74854,8.986415 -4.11759,9.554015 3.28567,1.143471 7.08395,-8.047798 28.81034,-22.1925 38.58435,-25.119872 2.97857,-0.892098 3.12976,-0.667681 2.60107,3.860903 -0.57399,4.916612 0.9835,6.554257 2.49279,2.621095 1.22804,-3.20021 22.65239,-12.823064 30.16528,-13.548883 3.72488,-0.359861 7.70168,0.06477 9.47008,1.011168 2.5561,1.36799 4.8286,1.069239 14.0677,-1.849386 13.2077,-4.172299 25.1336,-6.030552 38.9317,-6.066195 11.0739,-0.02861 14.4423,0.71283 14.4423,3.178977 0,2.068769 -7.6728,9.232053 -19.3333,18.049413 -9.4942,7.179272 -16.566,14.312257 -16.6308,16.77474 -0.02,0.749581 -1.8903,3.612681 -4.1569,6.362444 -2.2666,2.749763 -5.6198,7.818207 -7.4515,11.263207 -4.4562,8.380872 -15.9414,22.677491 -18.9971,23.647354 -5.3451,1.696464 -18.48993,18.180917 -22.06145,27.666457 -0.75291,1.99962 -3.16892,5.33301 -5.36892,7.40753 -2.2,2.07451 -7.51361,7.81661 -11.80802,12.76021 -7.08467,8.15565 -27.47961,24.86326 -30.35054,24.86326 -0.64612,0 -1.17355,0.45 -1.17205,1 0.001,0.55 8.85149,1 19.66667,1 19.57528,0 19.70753,0.0204 29.33061,4.53071 14.04235,6.58158 13.35347,7.82027 -8,14.38503 -37.89291,11.64953 -48.06411,16.95507 -56.423,29.43156 -3.06999,4.58227 -8.05572,11.01528 -11.0794,14.29559 -3.02368,3.28031 -5.4976,6.79508 -5.4976,7.8106 0,6.06473 -15.18814,34.54417 -22.11838,41.47441 -1.70907,1.70907 -7.58627,12.15816 -14.03648,24.95548 -1.35375,2.68586 -4.12271,6.18539 -6.15325,7.77673 -2.03054,1.59134 -3.99189,3.69058 -4.35856,4.66499 -0.88734,2.35808 -16.15773,14.47378 -24.92382,19.77484 -3.8503,2.32836 -7.01756,4.61341 -7.03836,5.07788 -0.14037,3.13478 29.43166,3.42979 40.00495,0.39909 C 876.30699,340.11037 880,339.5511 880,341.02892 c 0,3.88574 -4.25703,10.34379 -9.69495,14.70756 -12.10016,9.71002 -16.706,12.52298 -25.58431,15.62531 -4.95435,1.73118 -9.3659,3.5056 -9.80344,3.94313 -0.43754,0.43754 49.90517,51.62292 111.87268,113.7453 61.96752,62.12238 115.83522,116.46652 119.70612,120.76476 6.7007,7.44052 6.9607,8.00121 5.4279,11.70195 -0.8856,2.13784 -13.3147,15.1211 -27.6203,28.85169 C 1025.5836,668.33634 869.7284,825.68875 828.74314,868 c -12.76094,13.1738 -80.51993,81.18735 -116.37746,116.81468 -45.45452,45.16272 -47.53102,46.91462 -60.46034,51.01032 -6.53331,2.0697 -25.67814,1.6837 -34.57201,-0.6969 z"
       id="path1" />
    <path
       id="path2"
       style="fill:#f4e3d7"
       d="M 435.39441 52.020412 C 434.69475 52.009182 414.59537 71.599017 390.72839 95.553615 C 366.8614 119.50821 338.15972 147.65363 326.94714 158.09854 C 315.73455 168.54344 304.45759 179.84469 301.88659 183.21182 C 299.3156 186.57894 296.39814 189.33291 295.40417 189.33291 C 294.4102 189.33291 292.44029 191.28356 291.02722 193.6669 C 289.61415 196.05022 274.74457 211.1996 257.98425 227.33291 C 241.22392 243.46624 220.04007 264.01756 210.90808 273.00088 C 201.7761 281.9842 193.78591 289.33291 193.15222 289.33291 C 192.51853 289.33291 191.99987 289.92075 191.99987 290.6376 C 191.99987 292.03785 162.80672 321.57888 129.38269 354.00088 C 118.04297 365.00064 104.60093 378.80023 99.511593 384.6669 C 94.422249 390.53355 84.125283 401.63292 76.62878 409.33291 C 63.494319 422.82391 59.454484 428.88955 63.60339 428.88955 C 64.650496 428.88955 70.24024 424.03803 76.025265 418.11026 C 95.280505 398.37989 135.84865 358.04673 139.83776 354.6669 C 148.38196 347.42771 170.77601 326.15121 194.56823 302.6669 C 208.31277 289.10024 230.52291 267.50021 243.9237 254.6669 C 257.32451 241.83357 270.77297 228.63291 273.81042 225.33291 C 288.96858 208.86453 343.37488 153.33291 344.35144 153.33291 C 344.66292 153.33291 352.16631 145.9842 361.02526 137.00088 C 369.88422 128.01756 390.46123 107.16688 406.75183 90.666896 C 439.28097 57.719636 441.50394 55.102196 438.56042 53.239162 C 437.5184 52.579644 436.09407 52.031641 435.39441 52.020412 z M 441.82019 65.715724 C 440.9875 65.439346 428.82655 76.639908 414.79675 90.606349 C 400.76695 104.57279 388.7116 116.00088 388.00769 116.00088 C 387.30377 116.00088 385.68027 117.65023 384.40026 119.6669 C 382.11287 123.27071 366.41611 139.36783 357.30651 147.4501 C 354.75508 149.71382 332.19069 172.21384 307.16394 197.4501 C 267.92928 237.01319 222.36341 281.69684 178.13073 323.98526 C 171.60212 330.2269 160.33238 341.17665 153.08776 348.31924 C 145.84315 355.46184 136.18497 364.3968 131.62487 368.17276 C 127.06478 371.94871 120.9332 377.80486 117.99987 381.18838 C 115.06655 384.57191 101.79287 398.13892 88.50378 411.33682 C 75.214694 424.53472 63.067797 437.43421 61.50964 440.00088 C 58.018454 445.75171 57.723861 453.33291 60.992061 453.33291 C 61.29358 453.33291 66.097598 449.28291 71.667843 444.33291 C 77.238088 439.38292 83.642305 433.23355 85.898312 430.6669 C 88.154318 428.10023 97.458632 418.80087 106.57409 410.00088 C 129.09813 388.25635 163.91469 353.48122 168.01941 348.62979 C 169.86353 346.45018 173.76289 342.88483 176.68542 340.70596 C 179.60796 338.52709 185.03508 333.57709 188.74401 329.70596 C 192.45295 325.83483 196.03643 322.6669 196.70886 322.6669 C 197.38129 322.6669 199.74804 320.66694 201.96667 318.22354 C 204.1853 315.78014 207.0632 313.3941 208.36316 312.9208 C 209.66312 312.44751 211.12581 310.99615 211.61316 309.69619 C 212.32724 307.79141 224.9758 293.93705 233.57605 285.6376 C 234.54302 284.70443 245.78597 273.90442 258.56237 261.6376 C 271.33879 249.37077 282.58268 238.43291 283.5487 237.33291 C 284.51471 236.23291 287.78786 232.48421 290.82214 229.00088 C 293.85643 225.51755 297.09323 222.6669 298.0155 222.6669 C 298.93776 222.6669 300.75065 221.01755 302.04284 219.00088 C 303.33504 216.98421 307.72403 212.33355 311.79675 208.6669 C 315.86947 205.00023 321.33071 199.60667 323.93347 196.68252 C 329.77368 190.12115 349.41301 170.53843 357.40808 163.30362 C 360.66713 160.35445 375.33322 145.72619 389.99987 130.7958 C 404.66653 115.86543 418.46589 101.86207 420.66589 99.676662 C 422.86589 97.49125 429.42412 90.644382 435.23816 84.461818 C 444.89064 74.197501 445.7003 72.916964 444.57019 69.719631 C 443.88948 67.793763 442.65289 65.992103 441.82019 65.715724 z M 449.33386 77.430568 C 448.9672 77.466058 446.56654 80.098069 443.99987 83.280178 C 441.43321 86.462286 437.98386 89.713855 436.33386 90.504787 C 434.68386 91.295719 433.33386 92.634045 433.33386 93.479396 C 433.33386 96.40955 247.81816 280.00088 244.8573 280.00088 C 243.79571 280.00088 241.78134 282.21032 240.37878 284.91299 C 238.89651 287.76927 235.77021 290.89557 232.91394 292.37783 C 230.21127 293.78039 227.99987 295.61322 227.99987 296.4501 C 227.99987 298.40976 209.63156 317.39255 199.62292 325.77627 C 196.84908 328.09977 189.23093 335.25023 182.69323 341.6669 C 176.15553 348.08355 170.28433 353.33291 169.64636 353.33291 C 169.00839 353.33291 163.72717 358.41628 157.91003 364.62979 C 152.09289 370.84329 146.70725 375.94395 145.94128 375.96377 C 145.1753 375.98357 142.37026 378.84959 139.70886 382.33291 C 133.7268 390.16243 102.86883 420.48501 99.636593 421.70987 C 98.336628 422.20249 96.907819 423.55866 96.460812 424.72354 C 95.578682 427.02233 87.499551 436.52141 83.550655 439.90322 C 82.203909 441.05656 77.02179 446.17264 72.033077 451.27237 C 63.312574 460.18693 63.040285 460.66333 64.968624 463.60635 C 66.071763 465.28995 67.653877 466.64522 68.486202 466.62002 C 69.318527 466.59482 78.968937 457.89612 89.931515 447.28799 C 100.89409 436.67986 110.27101 428.00088 110.76941 428.00088 C 111.91801 428.00088 135.50469 405.41812 169.25769 372.00088 C 202.04074 339.54392 230.40047 312.8781 234.33386 310.81338 C 235.98386 309.94726 237.33386 308.64585 237.33386 307.9208 C 237.33386 305.8492 259.97467 283.94346 263.50183 282.60244 C 265.24263 281.94059 266.66589 280.40666 266.66589 279.19229 C 266.66589 276.87854 305.50294 237.4962 312.99987 232.20791 C 315.3832 230.52672 317.33386 228.60472 317.33386 227.93643 C 317.33386 227.26813 320.13282 224.15999 323.55456 221.02822 C 329.04243 216.00541 340.15129 204.94523 366.43347 178.34072 C 370.59488 174.12827 374.76427 170.67891 375.69909 170.67471 C 376.63391 170.67071 377.92037 169.29714 378.55651 167.62393 C 379.19267 165.95071 386.44102 158.00135 394.66394 149.95791 C 432.10113 113.33783 455.99987 89.180918 455.99987 87.959865 C 455.99987 86.365823 450.28493 77.338517 449.33386 77.430568 z M 464.03894 90.192287 L 454.53503 99.428615 C 420.84987 132.16669 414.95685 137.66499 411.66589 139.43252 C 409.64922 140.51565 407.99987 142.03077 407.99987 142.79971 C 407.99987 144.86494 393.40975 159.79698 390.48425 160.72549 C 389.10204 161.16419 387.06183 163.2806 385.95105 165.42862 C 384.84026 167.57664 383.03279 169.33291 381.93347 169.33291 C 380.83415 169.33291 379.41802 170.69074 378.78698 172.35049 C 376.70613 177.82355 308.20731 245.05447 300.70886 248.9833 C 298.85273 249.95582 297.3014 251.48263 297.26355 252.37588 C 297.22575 253.26912 294.70689 255.99442 291.66589 258.43252 C 288.62489 260.87062 284.87171 264.58289 283.32409 266.68057 C 279.70575 271.58496 261.66828 290.192 249.73425 301.33291 C 244.62825 306.09958 232.39917 317.60779 222.55847 326.90713 C 212.71777 336.20647 203.1672 344.98811 201.33386 346.4208 C 197.99416 349.03067 174.33765 372.63169 159.34558 388.31143 C 150.69418 397.35965 124.16259 422.56197 114.98425 430.4501 C 111.85913 433.13592 101.21256 443.39683 91.324093 453.25283 L 73.343624 471.17276 L 76.238155 474.25283 C 77.829573 475.94682 80.261271 477.33291 81.642452 477.33291 C 83.054144 477.33291 91.562802 470.1132 101.07605 460.84463 C 110.3837 451.77638 121.60916 441.12701 126.02136 437.17862 C 130.43355 433.23021 140.84626 423.39957 149.16003 415.33291 C 157.4738 407.26626 165.33128 400.06625 166.62097 399.33291 C 167.91066 398.59958 171.98188 394.40088 175.66784 390.00088 C 184.36985 379.61317 219.48557 345.2499 250.64245 316.63369 C 264.19597 304.18541 276.95022 292.20088 278.98425 290.00088 C 290.50903 277.53572 304.2083 263.92457 307.21276 261.95596 C 309.11217 260.71143 310.66589 258.92494 310.66589 257.98526 C 310.66589 257.04556 312.91589 254.33865 315.66589 251.96963 C 320.9772 247.39413 374.70229 194.26503 389.40808 179.0458 C 394.21586 174.07015 409.51316 158.89957 423.40222 145.33291 C 437.29127 131.76627 454.26501 114.83467 461.12097 107.70596 L 473.58581 94.743068 L 468.81237 92.467678 L 464.03894 90.192287 z M 489.60534 94.332912 C 488.2237 94.081556 486.77683 94.610479 484.57409 96.049709 C 479.32985 99.476208 420.16545 156.0242 397.4862 179.28604 C 387.50202 189.52669 373.06738 203.9267 365.40808 211.28604 C 357.74878 218.64536 329.49344 246.56628 302.61901 273.33291 C 275.74459 300.09956 245.11104 329.67417 234.5448 339.05362 C 213.83407 357.43812 193.06343 377.52956 181.33386 390.52432 C 177.30053 394.99269 173.28699 398.65223 172.41589 398.65713 C 171.54479 398.66213 168.95002 401.28994 166.64831 404.49502 C 164.34659 407.7001 156.67508 415.64945 149.60144 422.16104 C 142.52779 428.67262 128.3945 442.55029 118.19323 453.00088 C 107.99195 463.45148 97.619843 473.25343 95.146358 474.78213 C 92.672875 476.31083 90.989656 478.10948 91.404171 478.78018 C 92.624869 480.75531 102.55712 480.17715 107.47253 477.84463 C 111.63014 475.87171 141.80919 447.9719 158.10534 431.03604 C 161.8295 427.16569 165.21575 424.00088 165.63073 424.00088 C 167.00237 424.00088 185.33386 405.63483 185.33386 404.26065 C 185.33386 403.52002 188.48386 400.18831 192.33386 396.8583 C 196.18385 393.52829 200.23386 389.82461 201.33386 388.62588 C 202.43386 387.42715 218.24059 371.64475 236.46081 353.55557 C 254.68103 335.46639 299.68109 290.43078 336.46081 253.47549 C 373.24053 216.52019 419.53388 170.0139 439.33386 150.12783 C 459.13384 130.24175 476.55915 112.4765 478.05651 110.65127 C 479.55387 108.82604 483.63994 104.82495 487.13855 101.75869 C 492.9175 96.693902 493.27179 96.060797 490.99206 94.840724 C 490.52054 94.588372 490.06589 94.416697 489.60534 94.332912 z " />
    <path
       id="path3"
       style="display:inline;fill:#008000"
       d="M 433.86706 32.000881 C 433.42757 32.000881 421.67207 42.949592 407.74206 56.332912 C 393.81205 69.716233 381.57137 81.146864 380.54089 81.733303 C 379.51042 82.319742 378.66589 83.624504 378.66589 84.633693 C 378.66589 86.43143 339.00057 126.10224 301.99987 161.30947 C 291.73321 171.07849 282.77944 180.03003 282.10339 181.20205 C 279.41801 185.85747 263.58045 202.02199 242.66589 221.45401 C 230.5659 232.69627 199.05131 263.51931 172.63269 289.94815 C 146.21405 316.37699 115.44644 346.69959 104.25964 357.33291 C 93.072833 367.96624 76.887364 384.24685 68.292843 393.51065 C 54.114549 408.79304 52.312237 411.31138 48.845577 420.69815 C 45.417031 429.98171 45.094115 432.22266 45.704952 442.52237 C 46.543979 456.66973 50.217013 465.90242 59.095577 476.18643 C 66.747444 485.04955 81.870331 492.94424 92.66589 493.71182 C 96.332552 493.97253 100.04836 494.29447 100.92175 494.42666 C 101.79514 494.55884 102.8478 494.11962 103.26159 493.4501 C 103.67538 492.78058 106.56089 491.81541 109.6737 491.30557 C 114.32449 490.54382 117.24159 488.56111 126.03698 480.18838 C 131.92384 474.58442 141.2134 466.09958 146.68151 461.33291 C 152.14963 456.56626 162.93468 446.12013 170.64636 438.11807 C 191.01352 416.98397 230.38197 377.42043 247.33386 361.05166 C 255.40052 353.26249 288.39925 320.04934 320.66589 287.24502 C 352.93252 254.4407 408.58389 198.14179 444.33386 162.13565 C 480.08382 126.1295 509.33386 96.416062 509.33386 96.106349 C 509.33386 95.796637 510.32902 94.442156 511.54675 93.096584 C 512.76448 91.751013 513.37798 90.267651 512.91003 89.799709 C 511.32952 88.219193 502.00982 92.721426 500.68347 95.705959 C 499.95957 97.334847 498.29026 98.666896 496.97448 98.666896 C 495.65869 98.666896 494.21698 99.621614 493.76941 100.78799 C 492.97154 102.86721 471.75376 124.47306 430.65222 165.05947 C 419.29392 176.27542 406.39987 189.43032 401.99987 194.2919 C 389.11491 208.52856 360.97775 236.63148 356.99792 239.23916 C 354.98272 240.55957 353.33386 242.37809 353.33386 243.28018 C 353.33386 244.8648 319.07648 278.23713 315.23034 280.39932 C 314.18717 280.98576 313.33386 282.35736 313.33386 283.44619 C 313.33386 284.53502 309.39905 289.15376 304.59167 293.71182 C 299.7843 298.26988 290.93493 307.02209 284.92566 313.15908 C 278.91637 319.29609 263.50798 334.2948 250.68542 346.49112 C 237.86285 358.68742 227.36415 369.2482 227.35339 369.95987 C 227.34259 370.67154 225.91582 371.96143 224.18347 372.8251 C 219.74213 375.03934 207.99284 386.73934 206.56628 390.36807 C 205.91022 392.03686 204.31374 393.76679 203.01941 394.21377 C 201.72507 394.66075 196.46719 399.38731 191.33386 404.71572 C 173.86324 422.85029 126.98249 467.55159 116.6405 475.93643 L 106.33191 484.2919 L 93.499874 483.37393 C 79.178246 482.34888 74.669253 480.27471 64.529171 470.04385 C 57.531593 462.98363 55.313174 454.61698 56.421749 439.45791 C 57.524199 424.38261 59.644834 420.62243 80.917843 396.00088 C 94.146957 380.68941 91.906327 382.98841 119.90026 356.00088 C 161.19506 316.19066 185.0677 292.26823 185.98034 289.78213 C 186.47462 288.43565 190.28082 284.38767 194.43933 280.78799 C 214.72956 263.22435 327.26658 152.9479 385.78503 93.286037 C 399.83642 78.960105 414.93386 63.892659 419.33386 59.803615 C 430.61745 49.317448 434.66589 43.326014 434.66589 37.118068 C 434.66589 34.302826 434.30656 32.000881 433.86706 32.000881 z M 528.2987 85.346584 L 526.32214 88.338771 C 523.62118 92.428456 509.24299 106.96613 498.32995 116.64151 C 493.38223 121.0281 489.33386 125.11754 489.33386 125.72744 C 489.33386 126.33733 475.68318 140.62289 458.99987 157.47354 C 442.31658 174.32418 423.04405 194.08675 416.17175 201.38955 C 409.29946 208.69237 403.25523 214.6669 402.74011 214.6669 C 401.59067 214.6669 375.99987 239.69314 375.99987 240.81729 C 375.99987 241.26019 366.3992 251.1487 354.66589 262.78994 C 342.93257 274.43118 333.33386 284.29261 333.33386 284.70401 C 333.33386 285.4069 315.54807 302.6453 301.04284 316.00088 C 297.45879 319.30088 292.30673 324.32511 289.59558 327.1669 C 286.88441 330.00866 280.91718 336.09417 276.33386 340.69033 C 271.75053 345.28652 267.99866 349.56164 267.99792 350.19033 C 267.99718 350.81903 263.71874 354.93293 258.49011 359.33291 C 253.26145 363.73291 247.71202 368.83356 246.15808 370.6669 C 238.6613 379.51155 200.79581 416.21009 197.30261 418.01651 C 195.11926 419.14554 193.33386 420.71039 193.33386 421.49502 C 193.33386 422.27965 192.06803 424.69793 190.52136 426.87002 C 188.97469 429.04211 187.92403 431.00558 188.18737 431.23135 C 188.4507 431.45713 191.07471 433.14018 194.01745 434.97158 C 196.96021 436.803 203.70777 443.33274 209.01355 449.4833 C 214.3193 455.63388 226.31249 467.96342 235.66394 476.88174 C 271.9306 511.46872 319.74934 559.6472 321.8573 563.72354 C 323.07374 566.07589 324.50386 567.97877 325.03503 567.95205 C 325.5662 567.92535 327.64922 565.72727 329.66589 563.06924 C 331.68255 560.41121 333.33386 556.86791 333.33386 555.19424 C 333.33386 553.52058 334.52505 551.31649 335.9823 550.2958 C 337.43952 549.2751 340.51379 544.89116 342.81237 540.55362 C 345.11096 536.21607 349.71531 529.4566 353.0448 525.53408 C 365.65149 510.68196 365.59352 510.83548 364.75573 494.15127 C 363.83948 475.90433 362.82446 466.81461 361.31433 463.33291 C 359.91142 460.09845 357.33386 447.53457 357.33386 443.93447 C 357.33386 440.63609 362.39674 440.43673 368.32214 443.50088 C 375.81521 447.37571 386.66589 458.66848 386.66589 462.59268 C 386.66589 466.32415 388.79859 469.33291 391.44323 469.33291 C 393.21351 469.33291 399.99987 456.27482 399.99987 452.86807 C 399.99987 451.65783 400.61852 450.6669 401.37487 450.6669 C 402.13122 450.6669 403.13209 449.61625 403.59753 448.33291 C 405.15499 444.03865 412.43202 434.6669 414.20886 434.6669 C 415.17471 434.6669 416.84 432.71625 417.91003 430.33291 C 420.48981 424.58686 424.60198 420.00088 427.1737 420.00088 C 428.31753 420.00088 430.59405 418.18743 432.2323 415.97158 C 433.87052 413.75576 437.18831 410.77463 439.60534 409.34854 C 442.02238 407.92245 443.99987 406.09868 443.99987 405.29385 C 443.99987 403.92321 446.66956 400.64829 454.67761 392.19619 C 456.51687 390.25495 462.06672 383.82973 467.00964 377.9169 C 471.95255 372.00405 478.69678 365.1423 481.99792 362.66885 C 485.29906 360.19541 487.99987 357.50406 487.99987 356.68838 C 487.99987 355.87271 490.08151 353.1338 492.62487 350.60244 C 495.16825 348.07109 497.2676 345.28401 497.29089 344.40908 C 497.36749 341.53141 511.7542 325.75355 516.25769 323.6083 C 521.74957 320.99225 528.72449 313.74947 530.00573 309.33291 C 530.53758 307.49958 532.0365 304.79958 533.33581 303.33291 C 536.24501 300.049 542.66589 286.50511 542.66589 283.65322 C 542.66589 281.89569 547.27513 271.52166 552.16198 262.27822 C 552.85623 260.96507 553.07222 259.32321 552.64245 258.62783 C 552.21268 257.93244 552.76823 255.406 553.87683 253.01455 C 554.98542 250.62311 556.88219 245.66755 558.09167 242.00088 C 559.30114 238.33421 560.97551 234.51316 561.81237 233.51065 C 562.64924 232.50814 564.55854 228.30749 566.05651 224.17666 C 568.35877 217.82801 569.28701 216.6669 572.05651 216.6669 C 574.90302 216.6669 575.38987 217.3485 575.75964 221.86416 C 575.99372 224.72285 575.57773 227.43687 574.83581 227.89541 C 571.88132 229.72138 573.20591 255.83907 577.50964 280.62197 C 578.80049 288.05531 582.54013 326.33779 582.62683 333.00088 C 582.64833 334.65088 583.18793 336.00088 583.82409 336.00088 C 584.98047 336.00088 586.96532 328.47283 589.45105 314.6669 C 590.17724 310.63356 592.21983 303.13421 593.99011 298.00088 C 595.76038 292.86757 597.81333 285.23249 598.55261 281.03408 C 599.29189 276.83569 600.75707 271.73502 601.80847 269.7001 C 602.85987 267.66518 604.38281 263.54127 605.19128 260.53604 C 605.99974 257.5308 608.44378 252.73144 610.62292 249.87002 C 622.15791 234.72347 642.66589 201.07799 642.66589 197.30166 C 642.66589 195.77405 639.85829 192.66472 635.66589 189.54971 C 627.87086 183.75789 619.56109 175.76361 593.84558 149.31729 C 584.22775 139.42613 570.87836 126.06165 564.17956 119.61807 C 557.48077 113.17447 551.99987 107.02317 551.99987 105.9501 C 551.99987 104.87703 551.39922 104.00088 550.66589 104.00088 C 549.93255 104.00088 547.07333 101.75088 544.31042 99.000881 C 541.54751 96.250885 536.81448 92.052675 533.79284 89.672756 L 528.2987 85.346584 z M 825.39831 377.92276 L 823.00573 381.2958 C 821.68932 383.15018 819.21217 387.73001 817.50183 391.47354 C 815.23587 396.43319 812.44138 399.68911 807.203 403.47354 C 803.24907 406.32999 800.01162 409.04262 800.00769 409.50283 C 800.00369 409.96303 800.89989 411.08796 801.99987 412.00088 C 804.61734 414.17318 804.5571 421.98842 801.88855 426.46182 C 800.72739 428.4083 797.17293 431.98507 793.99011 434.41104 C 790.8073 436.83699 785.34149 441.48766 781.84362 444.74502 C 778.34578 448.00239 775.09295 450.6669 774.61511 450.6669 C 774.13726 450.6669 772.65133 451.87682 771.31237 453.35635 C 769.97342 454.83589 763.73067 458.49457 757.43933 461.48721 C 751.14797 464.47985 744.30058 467.76994 742.22448 468.79776 C 740.1484 469.82556 737.26969 470.6669 735.82605 470.6669 C 734.3824 470.6669 731.28038 471.67096 728.93347 472.89737 C 726.47336 474.18291 720.86968 475.26949 715.69909 475.46377 C 706.39311 475.81344 701.32717 476.85681 701.34167 478.42276 C 701.36627 481.0818 710.87163 484.73457 719.99987 485.59268 C 729.37824 486.47429 739.43033 487.55883 743.99987 488.18252 C 745.09987 488.33266 749.75053 487.99467 754.33386 487.43057 C 761.59204 486.53727 762.66589 486.68782 762.66589 488.59658 C 762.66589 491.79975 750.13039 502.6669 746.43542 502.6669 C 745.44054 502.6669 742.38871 503.86625 739.65222 505.33291 C 736.91574 506.79958 733.87626 508.00088 732.89831 508.00088 C 731.92035 508.00088 725.74694 513.25023 719.17956 519.6669 C 707.5201 531.05873 698.33545 537.26188 687.11706 541.32315 C 681.18031 543.47235 675.99987 547.4697 675.99987 549.90127 C 675.99987 550.7197 674.64987 552.7619 672.99987 554.44033 C 669.02077 558.48805 656.05443 568.00088 654.5155 568.00088 C 653.32414 568.00088 631.99987 599.67465 631.99987 601.44424 C 631.99987 601.93877 630.1798 603.09689 627.95495 604.01846 C 625.73009 604.94002 622.78956 607.11887 621.4198 608.86026 C 620.05002 610.60163 616.8426 612.89841 614.29284 613.96377 C 611.7431 615.02913 609.30356 616.82277 608.87097 617.9501 C 608.43837 619.07742 606.93883 620.00088 605.53894 620.00088 C 604.13905 620.00088 602.24678 620.90088 601.33386 622.00088 C 600.39769 623.1289 597.48979 624.00088 594.66589 624.00088 C 591.82879 624.00088 588.93627 624.87255 587.99011 626.0126 C 587.07174 627.11917 583.97639 628.39819 581.1112 628.85635 C 578.246 629.31451 575.11811 630.80881 574.16003 632.17666 C 572.92576 633.93883 570.02668 634.91294 564.21472 635.52041 C 549.86704 637.02005 551.33824 641.51893 567.46472 645.45596 C 575.25963 647.35897 577.3854 648.33815 585.61706 653.81729 C 591.23612 657.55742 594.1938 660.91633 592.95691 662.15322 C 592.71583 662.3943 584.75247 663.80692 575.25964 665.2919 C 542.66193 670.39121 543.40987 670.14 534.91784 678.80166 C 530.74625 683.05659 525.23255 688.04447 522.66589 689.88565 C 510.8284 698.3772 503.04797 703.56732 500.95105 704.37197 C 499.69413 704.8543 498.66589 705.86758 498.66589 706.62393 C 498.66589 707.38028 496.86589 708.00088 494.66589 708.00088 C 491.99922 708.00088 490.66589 708.66755 490.66589 710.00088 C 490.66589 711.19329 489.43946 712.00088 487.62878 712.00088 C 485.95843 712.00088 483.53918 713.22979 482.25183 714.7333 C 479.95897 717.41117 480.27187 717.81393 497.58191 734.40127 C 507.3008 743.7144 516.47007 752.70359 517.95886 754.37783 C 519.44765 756.05209 526.96591 763.5221 534.66589 770.97744 C 542.36587 778.4328 552.86656 788.79568 557.99987 794.00674 C 583.46938 819.86197 626.98932 861.33291 628.65222 861.33291 C 629.68721 861.33291 631.01304 862.16446 631.59948 863.18057 C 632.63202 864.96964 642.08264 875.69995 657.43737 892.51846 C 661.52839 896.99946 676.52667 912.06757 690.7655 926.00088 C 705.00432 939.93419 718.5282 953.28356 720.81823 955.6669 C 725.6718 960.71816 725.08958 960.58373 730.46276 957.90322 C 732.77542 956.74953 734.66589 955.11558 734.66589 954.27237 C 734.66589 952.25447 750.80493 936.00088 752.80847 936.00088 C 753.66198 936.00088 755.39589 934.34958 756.66198 932.33291 C 757.92807 930.31625 773.56784 913.96751 791.41784 896.00088 C 809.26783 878.03425 836.49679 850.6079 851.92566 835.05362 C 867.35451 819.49931 881.18348 806.12691 882.65612 805.33877 C 884.12879 804.55062 885.33386 803.22639 885.33386 802.39541 C 885.33386 801.56443 892.08388 794.36975 900.33386 786.40713 C 908.58384 778.44451 916.23386 770.9871 917.33386 769.83487 C 918.43386 768.68262 928.33388 758.52151 939.33386 747.25479 C 950.33384 735.98806 963.23322 722.47575 967.99987 717.22744 C 972.76654 711.97915 978.38917 706.10464 980.49401 704.17471 C 982.59887 702.24477 989.07865 696.01625 994.89441 690.33291 C 1000.7102 684.6496 1005.9367 680.00088 1006.5096 680.00088 C 1007.0825 680.00088 1011.7021 674.9129 1016.7753 668.69619 C 1021.9415 662.36541 1027.0363 657.38108 1028.3553 657.36416 C 1029.7172 657.34666 1031.6484 655.36575 1032.9354 652.6669 C 1034.1593 650.10023 1036.0985 647.97786 1037.246 647.9501 C 1038.3936 647.9223 1041.4332 645.17764 1043.9999 641.85244 C 1046.5666 638.52726 1052.1173 632.79065 1056.3339 629.1044 C 1064.9332 621.58665 1066.2367 617.27294 1060.7831 614.37588 C 1059.0135 613.43579 1051.9302 606.36688 1045.0428 598.6669 C 1038.1554 590.9669 985.91707 538.15008 928.95886 481.2958 L 825.39831 377.92276 z " />
    <path
       id="path4"
       style="fill:#008080"
       d="M 181.28698 434.46963 L 177.64245 437.61807 C 175.6388 439.34967 163.19986 451.71147 149.99987 465.08877 C 120.09202 495.39834 117.45637 497.14512 98.911983 498.95205 C 86.852856 500.12707 84.329721 500.01497 80.38464 498.13369 C 74.052835 495.11427 72.253812 496.8158 76.874874 501.45205 C 78.960752 503.5448 81.565891 506.15672 82.66589 507.25674 C 83.765889 508.35676 88.117197 512.36095 92.333858 516.15518 C 96.550521 519.94939 99.999874 523.88463 99.999874 524.90127 C 99.999874 525.91791 101.05053 527.12276 102.33386 527.57901 C 104.95589 528.51119 150.15736 574.08484 151.22839 576.87588 C 151.60652 577.86128 152.68519 578.66647 153.62487 578.6669 C 154.56455 578.66733 164.72651 588.20858 176.20691 599.86807 C 200.46094 624.50045 202.68008 626.30114 210.68151 627.86807 C 213.97346 628.51274 216.9788 629.10608 217.3612 629.18643 C 217.74361 629.26673 221.43904 627.08291 225.57214 624.33291 C 234.35912 618.48641 272.94289 582.58011 276.29284 577.13174 C 277.55363 575.08121 283.4775 568.58971 289.45691 562.70596 L 300.328 552.00869 L 295.42956 546.03018 C 292.73542 542.74234 286.59488 536.59134 281.78308 532.36026 C 276.97126 528.12917 265.15168 516.57863 255.51745 506.69424 C 245.88321 496.80984 235.96876 486.90983 233.4862 484.69424 C 224.96771 477.09176 211.32467 463.05432 201.33386 451.61221 C 195.83386 445.31328 189.07343 438.88013 186.31042 437.31533 L 181.28698 434.46963 z M 322.55261 584.00088 C 321.57962 584.00088 295.5745 609.78648 281.30066 624.90518 C 277.24955 629.19607 267.19597 638.89506 258.95886 646.45791 C 239.32917 664.48078 239.33678 664.46431 247.15026 671.05947 C 250.55069 673.92968 253.33386 676.76877 253.33386 677.37002 C 253.33386 679.0662 281.7971 706.59979 283.58776 706.63565 C 284.46114 706.65315 285.60139 705.9783 286.12097 705.1376 C 286.64055 704.29689 286.96478 700.52802 286.84167 696.76065 C 286.70098 692.45504 287.35358 688.93591 288.59948 687.28799 C 289.68963 685.84607 290.61148 682.26625 290.64831 679.33291 C 290.74551 671.5943 294.30788 652.57791 296.45691 648.32119 C 297.47141 646.31171 298.04455 643.95291 297.7323 643.08096 C 297.42004 642.20901 298.03271 640.10965 299.09167 638.41494 C 300.15063 636.72022 301.42689 633.57021 301.92956 631.41494 C 302.43223 629.25968 303.92008 625.95902 305.2362 624.08096 C 306.55232 622.20289 308.32857 618.51343 309.18151 615.88174 C 310.03446 613.25005 312.21757 609.08275 314.03308 606.62197 C 315.84859 604.1612 317.33386 600.60856 317.33386 598.72744 C 317.33386 596.82631 318.44514 594.61351 319.83581 593.74502 C 322.2544 592.23458 324.54993 584.00088 322.55261 584.00088 z M 474.6112 723.45596 C 471.40561 723.60931 457.33386 731.53851 457.33386 733.39737 C 457.33386 734.09556 456.7094 734.6669 455.94714 734.6669 C 455.18488 734.6669 451.44397 736.76625 447.63269 739.33291 C 443.82141 741.89958 439.46416 744.00088 437.95105 744.00088 C 436.43793 744.00088 434.63014 744.51282 433.93347 745.13955 C 433.23681 745.76628 427.56719 747.93066 421.33386 749.9501 C 409.85609 753.6686 386.61869 764.65486 379.38659 769.78213 C 377.06598 771.42736 373.07212 772.6753 369.69909 772.80947 C 366.54324 772.93501 363.22058 773.62472 362.31433 774.34072 C 361.40808 775.05674 359.81367 775.90767 358.77136 776.23135 C 357.72906 776.55503 356.78127 778.10066 356.66589 779.6669 C 356.5505 781.23313 356.83214 782.39819 357.29089 782.25674 C 357.74963 782.11528 363.19741 786.90299 369.39636 792.89541 C 375.59531 798.88783 382.32793 805.09158 384.35925 806.68057 C 386.39057 808.26956 388.95624 811.31485 390.06042 813.4501 C 391.1646 815.58535 392.62613 817.33291 393.30651 817.33291 C 394.81205 817.33291 409.33386 830.85137 409.33386 832.25283 C 409.33386 833.41242 447.57749 871.11586 449.42566 871.77822 C 450.10772 872.02266 450.66589 873.09071 450.66589 874.15322 C 450.66589 875.21574 451.75353 876.51748 453.08191 877.04385 C 454.41028 877.57021 458.73303 881.60089 462.68737 886.00088 C 466.64173 890.40088 473.34277 896.78073 477.57995 900.17862 C 481.81713 903.5765 487.43489 908.97651 490.06237 912.17862 C 499.67721 923.89621 501.51543 925.76825 505.71667 928.11807 C 513.2911 932.35454 518.84767 931.40047 534.68737 923.14346 C 548.89306 915.73823 549.50177 915.22153 573.63269 890.14346 C 587.11577 876.13113 600.35718 862.20358 603.05651 859.19229 L 607.96472 853.71572 L 604.9823 850.9833 C 598.27889 844.84139 577.79745 824.71681 528.55066 775.88174 C 500.01425 747.5839 475.96108 724.02685 475.09948 723.53213 C 474.98976 723.46913 474.82491 723.44574 474.6112 723.45596 z M 637.07019 882.6669 C 636.36618 882.6669 629.50111 888.51498 621.81433 895.66299 C 614.12754 902.81099 606.82464 909.2715 605.58581 910.01846 C 604.34698 910.76541 590.80913 924.05967 575.50183 939.56143 L 547.6698 967.74502 L 551.4823 972.87197 C 555.1509 977.80628 578.3642 1001.3329 579.56433 1001.3329 C 579.8863 1001.3329 583.26535 1004.4073 587.07409 1008.1649 C 598.59749 1019.5335 616.69384 1030.5299 624.25964 1030.7606 C 625.94987 1030.8126 628.53321 1031.4081 629.99987 1032.0849 C 635.27805 1034.5208 649.14699 1032.3587 657.16394 1027.8505 C 663.87138 1024.0786 687.24524 1001.7009 713.82995 973.59854 L 720.5155 966.53018 L 683.203 929.59854 C 662.68107 909.28621 644.1947 890.41689 642.12097 887.6669 C 640.04723 884.9169 637.7742 882.6669 637.07019 882.6669 z " />
    <path
       id="path5"
       style="fill:#ffcc00"
       d="M 306.75378 556.00088 C 304.1743 556.00088 290.06065 568.81665 284.85925 575.88174 C 276.64419 587.0403 224.02059 638.03771 219.56823 639.15518 C 216.96029 639.80973 214.79978 639.35396 212.2655 637.61416 C 210.28618 636.25534 205.87134 634.10699 202.45495 632.84072 C 197.79305 631.11281 194.46591 628.39678 189.12097 621.95205 C 185.20403 617.22915 181.32285 613.35722 180.49597 613.34854 C 176.79092 613.30964 176.1089 616.81651 177.39636 629.26065 L 178.68347 641.70987 L 186.34167 649.62783 C 196.60793 660.24184 200.32305 662.74719 209.88855 665.50283 C 219.86964 668.3782 224.02179 667.72038 233.04089 661.84072 C 236.9139 659.31588 258.66425 638.63012 281.37487 615.87197 C 326.38696 570.76573 324.84245 572.96416 315.9823 566.65518 C 313.76975 565.0797 311.05296 562.0376 309.94519 559.89541 C 308.83742 557.75323 307.40106 556.00088 306.75378 556.00088 z M 614.26745 861.11612 C 612.62885 861.17858 611.15911 862.5103 608.69519 864.90322 C 605.9644 867.55533 597.90734 874.88716 590.79284 881.19619 C 583.67835 887.50523 575.48993 895.31472 572.59558 898.55166 C 569.70122 901.7886 561.25792 909.9323 553.83191 916.64737 C 539.47571 929.62914 532.06155 933.48651 517.97253 935.30362 C 509.95306 936.33791 506.51942 935.18115 498.63659 928.78994 C 495.35274 926.12748 490.38169 922.09712 487.58776 919.83291 C 484.79384 917.56871 482.18692 916.03649 481.7948 916.42862 C 479.29516 918.92824 481.1351 934.30585 484.90417 942.41104 C 487.96771 948.99903 497.05914 961.33291 498.85144 961.33291 C 499.64013 961.33291 503.9716 963.03306 508.47644 965.11026 C 522.53359 971.59205 523.20159 971.81661 528.65222 971.90908 C 533.78544 971.99618 534.76561 971.21299 556.65222 949.52822 C 569.12652 937.16897 588.20947 918.62205 599.05847 908.31338 C 617.16935 891.1045 622.75602 884.83322 627.85339 875.98721 C 629.60639 872.94503 629.39094 872.48734 623.88855 867.6044 C 618.75862 863.05198 616.37422 861.03581 614.26745 861.11612 z " />
    <path
       id="path6"
       style="fill:#cccccc"
       d="M 1047.2831 20.188381 C 1040.0441 20.52972 1031.0439 21.997699 1023.9999 24.416896 C 1018.4999 26.305814 1011.4615 28.504814 1008.3592 29.303615 C 1003.4815 30.559603 1001.6063 32.23751 994.49206 41.711818 C 985.43385 53.774879 978.72343 61.332912 977.07214 61.332912 C 974.60992 61.332912 976.36246 57.539296 981.99987 50.666896 C 985.29987 46.643968 987.99987 42.980635 987.99987 42.526271 C 987.99987 42.071908 989.79988 39.435234 991.99987 36.666896 C 996.68331 30.773554 997.08328 28.000881 993.24792 28.000881 C 988.93227 28.000881 977.19844 33.365662 971.33386 38.020412 C 968.40053 40.348611 965.36392 42.496716 964.58581 42.79385 C 962.06428 43.756736 953.75793 53.856054 950.98425 59.332912 C 949.49871 62.266243 946.99989 65.826605 945.43151 67.245021 C 943.86315 68.663438 941.3699 71.782944 939.8905 74.176662 C 937.35003 78.287227 932.67189 81.116254 931.06823 79.512599 C 930.66667 79.111037 933.63612 75.006896 937.66589 70.391506 C 941.69565 65.776115 945.44103 60.500228 945.98816 58.666896 C 946.53529 56.833564 947.70829 54.432911 948.59558 53.332912 C 952.00713 49.103495 955.99587 41.072813 955.26941 39.897365 C 953.94934 37.761442 950.64141 38.550055 945.96862 42.114162 C 943.48258 44.010359 940.8235 45.174864 940.05847 44.702053 C 939.29345 44.229241 938.66589 44.487309 938.66589 45.274318 C 938.66589 46.061327 934.98815 50.146178 930.49206 54.352443 C 925.99598 58.558708 920.89914 64.232718 919.16589 66.961818 C 917.43263 69.69092 914.27591 72.823542 912.15026 73.922756 C 909.14212 75.478329 907.92859 77.408907 906.67566 82.63174 C 905.79029 86.322345 904.52475 89.675228 903.86511 90.082912 C 903.20546 90.490597 902.66589 91.695934 902.66589 92.760646 C 902.66589 95.750927 897.205 106.6669 895.70886 106.6669 C 892.59014 106.6669 905.05989 67.789195 911.63073 57.026271 C 916.49593 49.057157 915.01474 46.431617 907.70495 50.063381 C 903.22252 52.290416 889.33386 66.105533 889.33386 68.336818 C 889.33386 69.020095 888.13255 71.105068 886.66589 72.969631 C 885.19922 74.834193 883.99987 77.402849 883.99987 78.678615 C 883.99987 79.954381 881.14922 86.680776 877.66589 93.625881 C 870.11958 108.6718 868.67085 112.12857 866.63659 119.92666 C 864.58544 127.78949 857.2863 144.00088 855.79675 144.00088 C 853.5868 144.00088 859.07186 126.12685 865.37878 112.77822 C 867.55392 108.17453 869.33386 104.04277 869.33386 103.59658 C 869.33386 102.49193 880.88318 75.364917 884.34753 68.332912 C 885.88297 65.216249 887.53573 62.666896 888.02136 62.666896 C 888.507 62.666896 889.61141 61.117778 890.47448 59.223537 C 892.02038 55.830655 891.97979 55.792127 887.68933 56.698146 C 882.43176 57.808388 871.18506 65.13744 866.8612 70.272365 C 865.13517 72.322164 859.46894 80.600237 854.26941 88.666896 C 849.06987 96.733554 844.08001 103.78636 843.17956 104.34072 C 842.2791 104.89508 841.13423 107.20392 840.63659 109.46963 C 840.13896 111.73535 837.77067 117.89366 835.37292 123.15518 C 832.97516 128.4167 830.57397 134.72203 830.03698 137.1669 C 829.5 139.61175 827.93233 144.16305 826.55261 147.28213 C 825.17289 150.40121 823.13697 157.26193 822.02917 162.52822 C 820.92137 167.79451 818.97059 174.03083 817.69323 176.38565 L 815.36901 180.6669 L 814.92175 176.91885 C 814.67537 174.85784 815.02461 172.45914 815.69714 171.58682 C 816.36967 170.7145 817.67587 166.99958 818.60144 163.33291 C 819.52701 159.66626 822.02089 151.15026 824.14245 144.40908 C 826.26401 137.66791 827.99987 130.6534 827.99987 128.82119 C 827.99987 126.98899 828.54714 125.15295 829.21667 124.73916 C 829.88619 124.32537 830.83958 121.59253 831.33386 118.6669 C 831.82815 115.74125 832.78909 113.00214 833.47058 112.58096 C 834.15207 112.15978 834.41207 111.3322 834.04675 110.74112 C 833.68144 110.15003 834.21488 107.04114 835.2323 103.83291 C 840.65206 86.742839 841.45237 83.322805 840.72058 80.407131 L 839.92175 77.221584 L 836.62683 81.137599 C 834.81514 83.290674 833.33386 85.622453 833.33386 86.321193 C 833.33386 87.019935 832.18269 88.133739 830.77722 88.795803 C 826.49068 90.815037 805.34193 109.88415 805.33776 111.7333 C 805.33176 114.33141 801.22799 121.84882 799.15222 123.06533 C 798.15158 123.65177 797.33057 125.75307 797.32605 127.7333 C 797.32105 129.71353 796.42152 133.05274 795.32605 135.15322 C 794.23057 137.25371 793.33386 141.26692 793.33386 144.07315 C 793.33386 146.87937 792.81368 149.4984 792.17761 149.89151 C 791.54155 150.28462 790.66073 153.17012 790.22058 156.30362 C 789.78044 159.43711 788.75933 164.70088 787.95105 168.00088 C 787.14276 171.30088 786.05313 177.03554 785.53112 180.74502 C 784.37043 188.99302 774.38704 221.32715 772.99987 221.33096 C 770.10789 221.33896 772.74223 207.81368 777.41589 198.66104 C 778.92233 195.71091 780.04008 189.78385 780.44714 182.58682 C 780.83971 175.64591 782.37446 167.30478 784.37097 161.26065 C 786.17449 155.80076 788.01279 148.93421 788.45495 146.00088 C 789.49792 139.08162 794.07592 125.14103 798.13073 116.53799 C 799.89227 112.80056 801.33386 109.06987 801.33386 108.24697 C 801.33386 105.3355 797.33655 108.34363 792.78112 114.68447 C 790.24302 118.21734 786.53366 121.90901 784.53894 122.8876 C 782.54421 123.86618 780.4737 125.5669 779.93737 126.6669 C 767.63703 151.89446 765.01729 156.84869 762.82019 159.0458 C 762.00192 159.86406 761.33386 161.60058 761.33386 162.90518 C 761.33386 164.20979 760.18458 169.04083 758.78112 173.63955 C 755.75115 183.56787 749.73622 219.75716 746.70691 246.28408 C 745.51664 256.70698 744.05799 265.70699 743.46472 266.28408 C 741.13168 268.55349 744.4018 221.20665 748.04284 200.00088 C 748.73536 195.96755 749.87308 186.54637 750.57019 179.06533 C 751.2673 171.58429 752.40449 164.38428 753.09753 163.06533 C 753.79057 161.74638 754.7952 157.96689 755.32995 154.6669 C 755.86469 151.3669 756.95561 147.85691 757.75573 146.86807 C 758.66792 145.74071 759.23301 136.93512 759.27136 123.25674 C 759.32506 104.12254 759.0431 101.15176 756.97448 99.077053 C 753.6048 95.697426 749.85736 98.250698 750.40612 103.55166 C 751.07155 109.97969 745.09876 125.38594 736.01745 140.6669 C 733.83838 144.33355 730.91479 149.43421 729.51941 152.00088 C 725.76481 158.90699 721.30688 178.23686 720.06237 193.00869 C 718.60515 210.30544 714.82337 238.32807 713.25769 243.42862 C 712.56639 245.68067 711.9963 250.18068 711.99206 253.42862 C 711.98806 256.67654 711.33666 262.93292 710.5448 267.33291 C 709.75294 271.73291 709.18392 277.64941 709.28112 280.4794 C 709.47802 286.21192 702.65107 310.65693 700.85144 310.66299 C 700.21983 310.66499 700.10864 308.50008 700.60534 305.85244 C 703.71195 289.29284 706.64459 267.33597 709.22058 241.33291 C 710.05603 232.89959 711.38554 221.19958 712.17566 215.33291 C 712.96578 209.46626 714.35693 198.66624 715.26745 191.33291 C 716.96756 177.64022 720.11955 164.89394 723.45495 158.21572 C 725.28397 154.55363 724.99606 152.00088 722.75573 152.00088 C 722.15836 152.00088 719.04516 154.45834 715.83581 157.46182 C 712.62647 160.4653 708.39185 163.9425 706.42566 165.19033 C 702.9448 167.39945 693.33386 180.35841 693.33386 182.84268 C 693.33386 184.34185 688.39542 199.5934 686.69909 203.33291 C 686.03377 204.79958 685.19796 207.80088 684.84167 210.00088 C 681.97772 227.68501 677.49011 249.68266 673.14831 267.33291 C 672.42674 270.26625 670.99037 279.26626 669.95691 287.33291 C 668.92344 295.39957 667.53922 304.10023 666.88073 306.6669 C 663.9909 317.93104 660.94643 327.43075 659.85144 328.60049 C 659.1993 329.29716 658.66589 331.81166 658.66589 334.18838 C 658.66589 336.5651 658.11861 338.84881 657.44909 339.2626 C 656.77957 339.67639 655.83338 342.37533 655.34558 345.2626 C 654.46309 350.48602 651.54268 354.49592 650.20105 352.3251 C 649.8141 351.69901 650.02784 349.11886 650.67566 346.59268 C 655.5481 327.59255 657.88336 318.96499 658.77526 316.6669 C 662.0207 308.30474 665.33386 296.89047 665.33386 294.07315 C 665.33386 292.28602 665.84567 290.50744 666.47253 290.12002 C 667.0994 289.73259 667.93497 283.24709 668.328 275.70791 C 668.78027 267.03201 670.02638 259.21838 671.72253 254.42276 C 673.19645 250.25546 674.09919 246.54355 673.73034 246.17471 C 673.10987 245.55424 674.08518 238.2962 677.5155 218.00088 C 680.06459 202.91929 681.62648 197.2314 683.81237 195.05557 C 687.46714 191.41765 691.46853 173.33291 688.61901 173.33291 C 686.78656 173.33291 681.33386 177.8271 681.33386 179.33682 C 681.33386 180.26985 676.18266 186.3512 669.88855 192.85049 C 654.92702 208.29973 653.06151 211.26412 647.33972 228.6669 C 644.68751 236.73355 641.94994 243.90382 641.25769 244.60049 C 640.56543 245.29716 639.97346 247.09716 639.94128 248.60049 C 639.90908 250.10382 639.01546 253.73356 637.95495 256.6669 C 636.89444 259.60022 635.39523 267.40089 634.62292 274.00088 C 633.85062 280.60087 632.41518 289.60089 631.43347 294.00088 C 628.13572 308.78127 626.78398 316.59628 625.32214 329.33291 C 623.7076 343.39992 614.77822 381.33291 613.08191 381.33291 C 611.43604 381.33291 611.87251 373.5328 613.97644 365.33291 C 617.81828 350.35961 618.45566 347.05204 619.88464 334.6669 C 622.43056 312.60091 625.16532 295.78177 628.66589 280.6669 C 630.53411 272.60023 632.9179 261.24109 633.96276 255.42471 C 635.1483 248.82531 636.6406 244.41472 637.93151 243.69229 C 639.06925 243.05557 639.99987 241.1447 639.99987 239.44619 C 639.99987 237.74767 642.01123 230.28877 644.47058 222.87197 C 648.65732 210.24574 648.98153 208.00088 646.6073 208.00088 C 643.17138 208.00088 609.33386 265.17731 609.33386 270.9833 C 609.33386 271.92045 607.88138 275.41436 606.1073 278.74697 C 602.94078 284.69525 598.1684 301.55858 593.30066 324.00088 C 591.94865 330.2342 588.64541 344.03357 585.95886 354.6669 C 581.06505 374.03649 580.07214 381.67727 580.11511 399.62197 C 580.14091 410.37965 578.91716 418.6669 577.30261 418.6669 C 576.71523 418.6669 575.96292 391.81752 575.63073 359.00088 C 575.13626 310.15408 574.61463 297.19583 572.75573 287.54971 C 571.50687 281.06919 570.07601 267.61933 569.57605 257.65908 C 568.99879 246.15859 568.11803 239.36749 567.16394 239.05166 C 566.33762 238.77813 565.23149 239.62991 564.70495 240.94424 C 561.78647 248.22927 551.46022 277.44837 550.19519 282.00088 C 549.3801 284.93421 548.13269 287.74271 547.4237 288.24307 C 542.49401 291.72217 535.48468 359.30649 538.66784 372.6669 C 540.47007 380.23121 539.71674 410.02261 537.28503 427.33291 C 535.19905 442.18205 529.00476 465.66956 526.99987 466.33487 C 524.72832 467.08866 524.86949 462.16849 527.43542 451.1044 C 532.59305 428.86516 535.38319 395.31201 534.45691 366.6669 C 533.78683 345.94507 534.07944 329.71483 535.29284 320.33291 C 535.91153 315.54927 535.86577 312.02181 535.18542 312.05166 C 533.38894 312.13046 525.34428 323.5598 523.67956 328.39932 C 522.87239 330.74586 520.81215 334.80202 519.09948 337.41104 C 517.37549 340.0373 515.67778 345.0948 515.29675 348.74307 C 514.91822 352.36737 514.25721 358.63356 513.828 362.6669 C 513.39529 366.73305 512.16416 370.7011 511.06433 371.57315 C 509.58191 372.74855 509.10883 375.87383 509.19519 383.94229 C 509.25879 389.88009 508.73255 395.7722 508.02526 397.03604 C 506.48421 399.78972 499.84775 437.93804 499.29675 447.20791 C 498.67178 457.72229 497.21268 465.7004 495.20495 469.58291 C 494.17593 471.57282 493.33386 474.1904 493.33386 475.39932 C 493.33386 479.63916 486.16606 491.94245 484.60534 490.38174 C 484.18946 489.96586 485.03737 487.01063 486.49011 483.81338 C 489.51819 477.14908 491.70112 468.42193 493.44714 456.00088 C 494.82683 446.18593 495.21486 443.76094 501.85534 403.52822 C 504.50043 387.50247 507.59221 370.81575 508.72448 366.44619 C 509.85675 362.07663 511.13882 354.48952 511.57409 349.58487 C 512.00936 344.68021 512.9695 339.90207 513.70691 338.96768 C 514.44431 338.03329 514.68079 336.90445 514.23425 336.45791 C 513.29782 335.52148 504.25845 343.11348 501.41394 347.22549 C 500.3582 348.75165 498.70885 350.47889 497.74792 351.06533 C 496.78699 351.65177 495.99987 352.91036 495.99987 353.86026 C 495.99987 354.81016 494.80053 356.67356 493.33386 358.00088 C 491.8672 359.3282 490.66589 360.89886 490.66589 361.49307 C 490.66589 362.08728 488.84469 365.4452 486.61901 368.95401 C 482.29817 375.76587 478.9867 384.93077 477.32605 394.6669 C 476.76318 397.96689 475.40835 403.96755 474.31628 408.00088 C 473.22422 412.03421 471.97855 419.39824 471.54675 424.36612 C 471.11494 429.33399 469.88092 435.33465 468.80651 437.7001 C 467.73211 440.06556 465.87011 446.50089 464.66784 452.00088 C 463.46557 457.50088 462.00533 464.17538 461.4237 466.83487 C 460.84207 469.49435 460.60994 474.09383 460.90612 477.05557 C 461.20229 480.01731 460.81837 482.82766 460.05456 483.29971 C 459.29077 483.77176 458.66589 485.62446 458.66589 487.4169 C 458.66589 491.38207 450.82595 516.13865 448.98034 518.00088 C 446.96769 520.03166 448.797 509.92551 452.12292 500.64151 C 454.69888 493.45092 456.16449 484.46189 456.07409 476.39932 C 456.05599 474.78567 456.63128 473.09951 457.35339 472.65322 C 458.0755 472.20693 458.66589 469.88582 458.66589 467.49307 C 458.66589 465.10032 459.54573 460.48451 460.61901 457.23721 C 461.6923 453.98991 464.69204 439.33354 467.28698 424.6669 C 469.88193 410.00024 473.20054 394.09958 474.66003 389.33291 C 478.94914 375.32479 477.85038 372.24008 471.52722 380.53018 C 469.62677 383.0218 463.93172 389.17115 458.87097 394.19619 C 451.36145 401.65274 448.42857 405.90789 442.9198 417.33682 C 439.20738 425.03891 434.38916 436.73892 432.21276 443.33682 C 428.63334 454.1881 428.16599 457.67731 427.31823 479.8876 C 426.80276 493.3921 425.54001 509.29081 424.51159 515.21963 C 423.48316 521.14844 422.03344 530.19959 421.28894 535.33291 C 419.29869 549.05579 417.23539 557.33291 415.80651 557.33291 C 415.11311 557.33291 414.88188 555.38421 415.29284 553.00088 C 415.70381 550.61755 416.97527 542.06754 418.11901 534.00088 C 419.26276 525.93422 420.77617 515.73291 421.48034 511.33291 C 422.1845 506.93292 423.3271 493.4329 424.01941 481.33291 C 425.42555 456.75698 427.33301 442.94867 430.28308 436.00088 C 433.61591 428.1516 434.55032 424.08535 433.21276 423.25869 C 432.5215 422.83146 432.32114 421.77312 432.76745 420.90713 C 433.71878 419.06123 425.28498 427.8759 418.88073 435.4208 C 416.432 438.30567 413.45433 442.76625 412.26355 445.33291 C 411.07276 447.89958 408.12715 452.78037 405.71667 456.17862 C 403.3062 459.57686 401.33386 463.49316 401.33386 464.88174 C 401.33386 466.27032 400.36447 468.79162 399.17956 470.4833 C 397.40038 473.02345 396.99338 477.89282 396.84558 498.44619 C 396.7221 515.61743 396.14979 524.23564 394.99987 526.24502 C 394.03148 527.93718 393.33717 533.80275 393.34167 540.24502 C 393.34967 552.1786 389.5541 583.92122 387.8905 585.82901 C 387.33346 586.46781 387.19907 584.59395 387.59167 581.6669 C 388.0238 578.44511 387.71765 575.98253 386.81823 575.42666 C 384.54185 574.01977 385.29607 560.76663 389.43933 529.33291 C 390.95265 517.85179 390.94229 518.32401 390.19519 495.37393 C 389.68134 479.58929 389.38673 477.91853 386.81628 476.21182 C 385.26745 475.18343 383.99987 473.00387 383.99987 471.37002 C 383.99987 468.3087 378.45494 459.82923 373.69128 455.60635 C 370.99286 453.21427 370.99177 453.22605 370.14831 482.27432 C 369.16037 516.29824 366.04352 550.27968 363.54089 554.32901 C 363.13259 554.98967 361.87262 564.78624 360.74011 576.09854 C 359.60759 587.41085 358.07697 598.76328 357.33972 601.3251 C 356.60246 603.88693 355.99987 608.23628 355.99987 610.99112 C 355.99987 614.55449 355.42272 616.00088 353.99987 616.00088 C 351.60514 616.00088 351.34286 606.75535 353.47058 597.33291 C 354.21577 594.03292 355.3616 585.93291 356.0155 579.33291 C 356.66941 572.73292 357.81747 564.04845 358.56823 560.03408 C 359.6783 554.09843 359.5826 552.5396 358.05456 551.68447 C 356.44022 550.78105 356.44421 550.11891 358.07995 546.9833 C 359.12708 544.97601 359.98754 542.01971 359.99206 540.41299 C 359.99706 538.80627 360.60053 537.12012 361.33386 536.6669 C 363.01765 535.62626 363.09804 526.6669 361.4237 526.6669 C 360.04359 526.6669 355.56826 532.70558 354.25964 536.33291 C 353.79666 537.61625 352.55161 538.6669 351.49401 538.6669 C 350.43642 538.6669 348.21572 541.51755 346.55847 545.00088 C 344.90121 548.48421 341.38125 554.03292 338.7362 557.33291 C 332.22899 565.4514 330.715 568.83849 330.09362 576.6669 C 329.80258 580.33355 327.99319 587.46437 326.07214 592.51455 C 322.17425 602.7616 321.72267 607.64751 323.59948 619.33291 C 324.30617 623.73291 324.53593 636.93357 324.10925 648.6669 C 323.46451 666.39616 322.99598 670.00088 321.33386 670.00088 C 319.62165 670.00088 319.37436 666.6427 319.61316 646.6669 C 319.87305 624.92678 318.73282 614.6669 316.05847 614.6669 C 315.47097 614.6669 314.26423 616.61755 313.37683 619.00088 C 312.48942 621.38421 310.95216 624.8664 309.96081 626.73916 C 308.96947 628.61191 306.84201 633.71062 305.23425 638.07119 C 303.62649 642.43177 301.84479 646.59958 301.27331 647.33291 C 299.96686 649.00938 297.73984 661.79622 296.62878 674.00088 C 295.71944 683.98986 292.37892 698.30111 290.33972 700.94619 C 289.65616 701.83286 288.56022 706.83276 287.90417 712.05752 C 286.86346 720.34581 281.21488 737.45957 275.37878 750.00088 C 269.36501 762.92397 272.33078 763.72303 282.89831 752.02822 C 287.53802 746.89358 292.06884 742.68768 292.96667 742.68057 C 293.8645 742.67357 295.48123 741.01755 296.56042 739.00088 C 297.63961 736.98421 301.70399 732.64058 305.59362 729.35049 C 309.48326 726.06041 337.26723 699.01179 367.33386 669.24112 C 397.4005 639.47045 423.95053 613.7709 426.33386 612.13174 C 428.7172 610.49259 430.66589 608.66578 430.66589 608.07119 C 430.66589 607.4766 441.52692 595.96716 454.80066 582.49502 C 468.07438 569.02289 482.32376 554.48983 486.46667 550.2001 C 490.6096 545.91037 497.30053 539.56879 501.33386 536.10635 C 511.41122 527.45538 523.99987 514.75842 523.99987 513.24697 C 523.99987 512.56078 524.70435 512.00088 525.56433 512.00088 C 526.42432 512.00088 531.35125 507.41582 536.51355 501.81338 C 541.67585 496.21095 547.87203 490.8032 550.28308 489.7958 C 552.69412 488.7884 554.66589 487.29539 554.66589 486.47744 C 554.66589 484.42029 563.98045 474.21433 566.92566 473.04385 C 568.25012 472.51748 569.33386 471.42766 569.33386 470.62393 C 569.33386 468.62753 572.32704 465.4852 605.99987 432.12588 C 637.45873 400.95992 655.51092 384.00088 657.22448 384.00088 C 657.81043 384.00088 660.44104 380.85088 663.07019 377.00088 C 668.17402 369.5271 684.16295 353.04395 735.80261 302.02237 C 753.60361 284.43442 769.37883 268.08375 770.85925 265.68838 C 772.33967 263.29301 774.01332 261.33291 774.578 261.33291 C 775.14267 261.33291 781.24247 255.54768 788.13464 248.47549 C 795.02681 241.40331 801.82602 234.6533 803.24401 233.47549 C 804.66201 232.29769 807.06267 229.93802 808.578 228.2333 C 810.09333 226.52858 816.73386 219.93633 823.33386 213.58291 C 829.93385 207.2295 841.63387 195.45841 849.33386 187.42471 C 883.05954 152.23738 930.72904 107.31019 936.31433 105.4501 C 937.24106 105.14147 940.79573 101.98896 944.21276 98.44424 C 950.52852 91.892471 954.66589 90.215422 954.66589 94.207912 C 954.66589 95.422761 940.41653 110.80936 922.99987 128.39932 C 885.74856 166.02132 886.57219 165.1999 882.50573 168.84072 C 880.76106 170.40278 877.23255 174.55331 874.66589 178.06533 C 868.12563 187.01449 837.86915 219.06316 809.89831 246.6669 C 796.89431 259.50021 783.25924 273.60089 779.59948 278.00088 C 766.72029 293.4851 712.08068 349.3236 705.02136 354.21572 C 702.25973 356.12953 699.99987 358.51108 699.99987 359.50674 C 699.99987 360.50241 697.45053 363.16093 694.33386 365.41494 C 691.2172 367.66895 688.36654 370.31458 687.99987 371.29385 C 686.63482 374.93955 674.6404 388.06691 649.34948 413.59463 C 635.04031 428.0378 616.44076 447.15481 608.01745 456.07901 C 599.59414 465.0032 591.34543 472.82287 589.68542 473.45401 C 588.02541 474.08514 586.66589 475.64303 586.66589 476.9169 C 586.66589 478.19077 585.16585 480.75517 583.33191 482.61612 C 581.49796 484.47706 574.04451 492.30089 566.76745 500.00088 C 559.49038 507.70087 549.89362 517.00023 545.44323 520.6669 C 540.99285 524.33355 537.34887 527.77831 537.34362 528.32119 C 537.33462 529.25471 521.73148 545.70762 490.99987 577.19229 C 483.48321 584.89314 477.33386 591.70435 477.33386 592.32901 C 477.33386 593.1725 437.58037 634.15426 426.56433 644.6669 C 425.79588 645.40023 422.07198 649.29959 418.28894 653.33291 C 414.50589 657.36625 401.35561 670.86626 389.06823 683.33291 C 376.78086 695.79957 365.07081 708.16281 363.0448 710.80557 C 361.01878 713.44832 357.43249 717.04832 355.07605 718.80557 C 352.7196 720.56281 348.70102 724.70088 346.14441 728.00088 C 343.58779 731.30088 332.15914 743.20471 320.74792 754.45401 C 309.33669 765.7033 299.99987 775.3784 299.99987 775.95596 C 299.99987 776.53353 299.09987 777.75398 297.99987 778.6669 C 292.86127 782.93155 298.11551 783.91449 308.78894 780.68643 C 312.38881 779.59768 321.59544 778.06744 329.24792 777.28408 C 336.9004 776.50072 344.69911 775.00493 346.57995 773.95987 C 348.4608 772.9148 355.10053 770.46981 361.33386 768.52822 C 372.78987 764.95984 386.66553 758.89155 386.66589 757.4501 C 386.666 757.01909 381.41665 756.87872 374.99987 757.1376 C 361.78735 757.67066 361.0204 756.23294 373.6112 754.53604 C 409.32123 749.72328 428.40272 743.80341 449.39831 731.02432 C 462.36559 723.1317 465.33386 721.02016 465.33386 719.68643 C 465.33386 717.61651 454.22252 719.49201 448.16003 722.58487 C 445.31985 724.03381 442.62183 724.84354 442.16394 724.38565 C 441.70605 723.92777 436.92066 724.65244 431.52917 725.99502 C 422.27326 728.29991 416.29166 728.097 417.87683 725.53213 C 418.83915 723.97507 436.99317 719.63223 438.54089 720.58877 C 439.69977 721.305 446.4702 719.9869 466.66589 715.11416 C 471.43254 713.96407 477.17124 711.64676 479.41784 709.96572 C 481.66443 708.2847 485.67109 706.00309 488.32214 704.89541 C 490.97319 703.78773 498.30498 699.83426 504.61316 696.1083 C 510.92134 692.38235 516.58325 689.33291 517.19519 689.33291 C 518.98499 689.33291 525.22805 684.01964 526.72448 681.22354 C 527.85838 679.10484 527.53939 678.39955 524.89831 677.19619 C 522.41165 676.06319 519.19528 676.3382 510.51355 678.42471 C 504.36407 679.90263 496.9332 681.44778 493.99987 681.86026 C 491.06655 682.27274 485.96589 683.25706 482.66589 684.0458 C 479.36589 684.83455 474.2672 685.96469 471.33386 686.55752 C 468.40053 687.15034 464.31038 688.31752 462.24597 689.15127 C 460.18157 689.98501 455.98286 690.6636 452.91394 690.65908 L 447.33386 690.65127 L 451.15222 688.65908 C 453.25271 687.5636 456.36786 686.6669 458.07409 686.6669 C 459.78032 686.6669 461.50663 686.12941 461.91198 685.47354 C 462.31733 684.81767 464.90348 684.00212 467.65808 683.66104 C 470.41267 683.31996 477.4672 681.79664 483.33386 680.27432 C 489.20052 678.752 499.10053 676.80878 505.33386 675.95791 C 511.56719 675.10704 522.0659 673.02109 528.66589 671.32119 C 535.26588 669.62129 549.18774 666.28219 559.60144 663.90127 C 580.51438 659.11987 583.12492 658.10366 579.99987 655.96377 C 578.89988 655.21054 576.32774 654.23163 574.28503 653.78799 C 572.24232 653.34434 569.97124 651.8609 569.23816 650.49112 C 568.50507 649.12112 567.04845 648.00088 565.99987 648.00088 C 564.95131 648.00088 561.2238 647.02556 557.71667 645.83487 C 546.25972 641.94513 518.36412 643.53568 499.01745 649.18252 C 493.71007 650.73162 488.31006 651.98123 487.01745 651.95791 C 482.28664 651.87251 489.13354 648.33927 498.41589 646.07705 C 503.32017 644.88183 512.13321 642.46912 517.99987 640.71377 C 523.86654 638.95842 534.0659 636.64096 540.66589 635.56533 C 560.12987 632.39321 571.88641 628.75306 574.07019 625.21963 C 574.53805 624.46262 576.21484 623.99379 577.7948 624.17862 C 579.37474 624.36344 583.66019 623.16856 587.31823 621.52432 C 590.97627 619.88008 596.60752 617.94462 599.83386 617.22158 C 606.47161 615.73404 613.47334 609.8119 631.66589 590.29776 C 636.93574 584.64506 638.39559 581.50793 636.59362 579.70596 C 636.18702 579.29936 632.31398 580.68182 627.9862 582.77822 C 618.8359 587.21068 602.49561 592.63571 591.99987 594.72744 C 587.96655 595.53126 581.06589 597.29891 576.66589 598.65518 C 572.26589 600.01146 565.66654 601.51143 561.99987 601.98916 C 548.14301 603.79455 545.89796 604.25969 542.12878 606.1044 C 537.30838 608.4636 535.99987 608.48738 535.99987 606.21377 C 535.99987 603.1786 546.84692 599.57079 564.66589 596.68057 C 577.91621 594.53137 598.3836 589.7466 605.99987 587.01651 C 616.02724 583.42214 637.07965 573.53155 642.88659 569.68643 C 664.31805 555.4954 670.60562 550.07148 668.2987 547.76455 C 667.31455 546.7804 665.16235 546.95416 661.11316 548.34463 C 649.73417 552.25211 645.85197 553.29227 635.33386 555.24697 C 625.31744 557.10845 605.09198 559.42226 589.99987 560.43447 C 586.33321 560.6804 582.02354 561.58279 580.42175 562.44033 C 578.81996 563.29788 576.29665 564.00088 574.81628 564.00088 C 573.33591 564.00088 570.66266 564.66678 568.87487 565.48135 C 566.67133 566.48535 564.85928 566.53436 563.24987 565.63369 C 561.12904 564.4468 561.31899 564.07574 565.02917 562.15713 C 567.31344 560.97589 571.46625 559.67902 574.25769 559.27432 C 577.04911 558.86961 580.23386 558.21106 581.33386 557.81143 C 582.43386 557.41181 587.41373 556.8607 592.40026 556.58682 C 597.38679 556.31294 603.6868 555.47131 606.40026 554.71768 C 609.11372 553.96406 614.33813 553.34481 618.00964 553.34072 C 621.68115 553.33672 626.77984 552.7272 629.34167 551.98721 C 631.90349 551.24722 637.10246 550.33694 640.89441 549.96377 C 647.1343 549.34969 653.24509 547.48732 660.66589 543.93838 C 662.13255 543.23696 666.03386 541.81211 669.33386 540.77237 C 688.40303 534.76408 696.29646 530.99592 705.41589 523.5458 C 710.63472 519.28228 714.59138 515.48107 714.20886 515.09854 C 713.12961 514.0193 671.63691 517.30884 670.06237 518.59854 C 668.33934 520.00989 658.99028 521.01043 637.42956 522.08682 C 628.3157 522.54181 619.57682 523.40115 618.00964 523.99697 C 613.34137 525.77185 599.15037 527.1478 600.66589 525.67862 C 604.68759 521.77988 625.63133 517.86274 649.08776 516.62197 C 655.1856 516.29941 668.38432 514.86174 678.4198 513.42666 C 688.45529 511.99158 702.79261 510.40734 710.27917 509.90713 C 721.07 509.18613 724.3548 508.48455 726.12878 506.52432 C 727.35956 505.16433 730.43244 503.66429 732.95886 503.19033 C 739.21981 502.01578 748.57864 496.90844 749.06433 494.40127 C 749.3945 492.69693 746.91593 492.19099 734.39636 491.40127 C 723.52682 490.71564 716.54946 489.48302 709.33386 486.97549 C 693.20629 481.37095 673.31807 482.23808 651.86316 489.4794 C 643.9039 492.16574 637.33386 492.76692 637.33386 490.80947 C 637.33386 489.14049 640.98901 487.88553 647.99987 487.14932 C 651.29987 486.80279 655.62618 485.35296 657.61316 483.92666 C 659.60012 482.50036 662.14022 481.33291 663.25769 481.33291 C 664.37515 481.33291 671.90875 479.53291 679.99987 477.33291 C 688.091 475.13291 697.36476 473.33291 700.60925 473.33291 C 703.85374 473.33291 706.88064 472.73421 707.33386 472.00088 C 707.78709 471.26755 710.78644 470.6669 713.99987 470.6669 C 717.21331 470.6669 720.15075 470.16861 720.52722 469.55947 C 720.90369 468.95033 724.68919 467.68233 728.93933 466.74307 C 740.43156 464.20332 750.85889 459.62464 763.92566 451.37979 C 770.35858 447.32074 776.23721 444.00088 776.99011 444.00088 C 777.74301 444.00088 779.33402 442.51232 780.52526 440.69424 C 781.7165 438.87617 784.48647 436.46114 786.67956 435.32705 C 788.87266 434.19296 790.66589 432.61659 790.66589 431.8251 C 790.66589 431.03362 792.46589 427.71964 794.66589 424.45987 C 796.86589 421.20009 798.66589 418.33314 798.66589 418.08877 C 798.66589 414.9977 776.27964 419.46465 771.89441 423.43057 C 770.73667 424.47761 768.7264 425.33291 767.42566 425.33291 C 766.1249 425.33291 759.87066 427.04213 753.52917 429.13174 C 736.45506 434.75788 700.62643 442.40283 698.99206 440.76846 C 698.60345 440.37985 699.42018 439.6935 700.80847 439.24307 C 702.19677 438.79265 704.53321 437.91326 705.99987 437.28799 C 707.46654 436.66272 711.36589 435.776 714.66589 435.31729 C 720.6713 434.4825 731.6524 431.4903 736.66589 429.32315 C 738.13255 428.68916 743.83386 426.85099 749.33386 425.23721 C 754.83385 423.62344 763.036 420.60715 767.56042 418.53604 C 772.08485 416.46492 777.44412 414.35519 779.47058 413.84658 C 781.49704 413.33797 785.16196 411.56016 787.61511 409.89541 C 790.06826 408.23066 794.7577 405.56883 798.03698 403.98135 C 801.31627 402.39388 803.99987 400.47979 803.99987 399.72744 C 803.99987 398.9751 806.08542 396.44916 808.63464 394.11416 C 814.04519 389.1583 815.56639 383.20576 811.33386 383.54971 C 798.76347 384.57122 782.03896 387.31031 775.99987 389.33682 C 771.96655 390.69026 765.06589 392.66514 760.66589 393.72549 C 752.91581 395.59317 725.68712 403.43598 721.87878 404.89737 C 720.76922 405.32314 719.99987 404.78706 719.99987 403.58682 C 719.99987 401.66533 729.62823 398.6669 735.7987 398.6669 C 737.08261 398.6669 738.7036 398.16438 739.40026 397.54971 C 740.95468 396.17823 756.31399 390.6669 758.58191 390.6669 C 759.48444 390.6669 764.65361 388.89244 770.07019 386.72354 C 775.48676 384.55464 785.48727 381.8989 792.29284 380.82315 C 799.09842 379.74739 807.06655 377.94826 809.99987 376.8251 C 812.9332 375.70195 817.21024 374.75768 819.50378 374.72549 C 821.79732 374.69329 824.36741 373.82886 825.21667 372.80557 C 826.06592 371.78228 828.99085 370.52734 831.71472 370.01651 C 836.28398 369.1596 854.28349 360.35077 858.47644 356.91885 C 859.47131 356.10455 861.5231 354.81362 863.03698 354.05166 C 869.52105 350.78811 866.25416 349.99305 844.99987 349.66299 C 820.9602 349.28968 796.90999 351.34643 792.38073 354.16299 C 790.75654 355.17302 788.47187 356.00088 787.30456 356.00088 C 786.13725 356.00088 777.97765 358.39958 769.17175 361.33291 C 752.60663 366.85092 749.33386 367.52899 749.33386 365.43838 C 749.33386 364.02835 770.73521 356.51198 780.66589 354.43447 C 784.33255 353.66741 790.03386 351.6953 793.33386 350.05166 C 796.63386 348.40802 802.63255 345.98871 806.66589 344.67666 C 810.69922 343.3646 815.50053 341.30511 817.33386 340.09854 C 819.1672 338.89198 822.46589 337.02657 824.66589 335.95401 C 831.06752 332.833 845.88575 322.38722 853.16198 315.86612 C 859.14119 310.50744 869.0003 295.222 867.46667 293.68838 C 867.14028 293.36199 862.77613 295.47628 857.76941 298.3876 C 852.76267 301.29891 843.04393 306.49499 836.17175 309.93447 C 825.07072 315.49047 818.75413 317.93795 794.36706 326.12783 C 790.90182 327.29155 787.32307 327.99664 786.41589 327.69424 C 784.34793 327.00493 790.42903 323.91093 806.66589 317.38955 C 820.98048 311.64025 837.01026 304.52468 839.99987 302.59268 C 841.09987 301.88182 844.69988 300.0652 847.99987 298.55752 C 856.01521 294.89553 870.56226 283.72413 876.2362 276.87197 C 890.99971 259.04278 898.16108 242.29049 888.21081 248.86026 C 868.5841 261.81897 844.19354 274.39642 820.16784 283.94619 C 795.07453 293.92032 801.83628 287.77947 831.99987 273.20205 C 839.69987 269.48082 848.40053 265.19865 851.33386 263.68447 C 854.2672 262.1703 862.36721 257.9764 869.33386 254.36612 C 876.72431 250.53622 885.85579 244.37184 891.25769 239.56729 C 896.34981 235.03823 902.60417 229.66799 905.15417 227.63174 C 907.70417 225.5955 910.43719 222.8229 911.22839 221.47158 C 916.93706 211.72142 917.36866 210.6669 915.65222 210.6669 C 913.72948 210.6669 891.6365 221.73327 876.14831 230.45401 C 870.7301 233.50477 865.80117 236.00088 865.19519 236.00088 C 864.58922 236.00088 863.49661 237.11721 862.7655 238.4833 C 861.31041 241.20216 853.75731 244.86769 852.40222 243.5126 C 851.41428 242.52467 861.30422 233.47153 863.46081 233.38955 C 864.26382 233.35905 866.03937 232.09531 867.40808 230.58291 C 869.64356 228.11272 881.83756 220.90528 902.66589 209.74112 C 906.69922 207.57922 915.39988 203.84333 921.99987 201.44033 C 928.59987 199.03734 935.50053 196.29968 937.33386 195.35635 C 939.1672 194.41303 942.7672 193.1977 945.33386 192.65518 C 947.90053 192.11265 951.5924 190.54238 953.53894 189.1669 C 955.48547 187.79141 958.0745 186.6669 959.29284 186.6669 C 960.51118 186.6669 962.81996 185.9457 964.42175 185.06338 C 966.02354 184.18105 970.39551 182.83105 974.13855 182.06338 C 977.88159 181.2957 981.10607 180.06793 981.30261 179.33682 C 981.49914 178.60572 978.62504 176.50636 974.91589 174.6708 C 968.63429 171.5622 967.31947 171.39732 955.75183 172.2626 C 936.47009 173.70489 929.5117 174.84613 927.8612 176.83487 C 927.02464 177.84285 925.59271 178.6669 924.67956 178.6669 C 923.76641 178.6669 918.89068 181.01446 913.84362 183.88369 C 902.36129 190.4114 898.66589 191.59755 898.66589 188.75674 C 898.66589 187.60732 899.23522 186.6669 899.92956 186.6669 C 900.6239 186.6669 908.87261 180.97014 918.26159 174.00674 C 927.65057 167.04335 937.33003 159.99204 939.76941 158.33877 C 942.20878 156.68551 945.80879 153.92196 947.76941 152.19815 C 949.73002 150.47433 952.83255 148.27155 954.66589 147.30166 C 957.86014 145.61179 966.66589 136.97797 966.66589 135.53604 C 966.66589 135.15456 969.96655 130.45607 973.99987 125.09463 C 982.58911 113.67711 983.56375 109.98222 976.58191 115.30752 C 963.51656 125.27295 942.08187 137.1942 940.34753 135.45987 C 939.33511 134.44745 943.97044 129.33291 945.90026 129.33291 C 946.7177 129.33291 950.97367 126.58848 955.35925 123.2333 C 976.8817 106.76754 989.17185 97.843068 994.25378 94.993068 C 997.32704 93.269552 1003.2153 88.217306 1007.3378 83.764553 C 1015.0755 75.406866 1027.0423 58.598021 1025.9979 57.553615 C 1025.6726 57.228301 1023.4403 58.43692 1021.037 60.239162 C 1015.9859 64.027037 994.82632 76.844704 991.5487 78.102443 C 990.09553 78.660075 989.33386 78.270148 989.33386 76.971584 C 989.33386 74.878333 1000.5813 65.705499 1007.3339 62.291896 C 1009.5339 61.179756 1016.1332 56.634382 1021.9999 52.190334 C 1027.8666 47.746285 1036.2659 41.383292 1040.6659 38.051662 C 1045.0659 34.720033 1051.2173 30.192397 1054.3339 27.989162 C 1057.4506 25.785927 1059.9999 23.415134 1059.9999 22.719631 C 1059.9999 20.63258 1054.5221 19.847041 1047.2831 20.188381 z M 874.80456 170.34658 C 873.63291 170.63269 869.71507 173.84632 864.06433 179.74112 C 858.52844 185.51609 852.94922 190.61845 851.66589 191.07901 C 850.38255 191.53957 849.33386 192.78533 849.33386 193.84854 C 849.33386 194.91174 847.3832 197.01071 844.99987 198.5126 C 841.38233 200.79224 769.1871 272.86304 751.34948 292.00088 C 737.36593 307.00375 710.77869 333.33291 709.61316 333.33291 C 708.77784 333.33291 707.39361 334.68291 706.53698 336.33291 C 705.68035 337.98291 698.97087 345.33356 691.62683 352.6669 C 684.28279 360.00022 673.35025 371.70023 667.33386 378.6669 C 661.31746 385.63355 653.45716 393.95707 649.86511 397.16494 C 646.27305 400.37282 632.14489 414.02348 618.47058 427.49893 C 604.79627 440.97436 593.22348 452.00088 592.75378 452.00088 C 591.67931 452.00088 582.29572 461.96719 575.50573 470.31924 C 572.66717 473.81083 562.38126 484.46756 552.64831 494.00088 C 542.91537 503.5342 520.63757 525.66927 503.14245 543.19033 C 388.60604 657.89654 309.71239 735.1999 296.99987 745.17862 C 292.04988 749.06413 287.99987 752.85267 287.99987 753.59658 C 287.99987 754.34049 276.45051 766.53163 262.33386 780.68838 C 248.21721 794.84512 235.14591 808.13138 233.28698 810.21377 C 223.30353 821.39736 193.40935 854.64492 189.72058 858.6669 C 187.36655 861.23355 176.43175 872.63422 165.42175 884.00088 C 154.41176 895.36754 143.5913 906.99399 141.37683 909.83877 C 136.50706 916.09458 130.988 921.33291 129.2655 921.33291 C 128.56995 921.33291 127.99987 921.84906 127.99987 922.4794 C 127.99987 923.10974 125.86998 925.65909 123.2655 928.14541 C 120.66102 930.63174 117.71323 934.16755 116.71667 936.00088 C 115.7201 937.83421 112.3013 942.11247 109.11901 945.50869 C 100.6481 954.54907 89.380303 970.2157 86.306515 977.22549 C 83.000446 984.765 76.536437 994.20492 71.66589 998.61026 C 69.649225 1000.4343 67.998709 1002.8437 67.995968 1003.9638 C 67.993268 1005.0838 66.791924 1007.965 65.327999 1010.3661 C 63.864075 1012.7671 62.66589 1015.2559 62.66589 1015.8974 C 62.66589 1016.539 67.316547 1015.2632 72.999874 1013.0614 C 78.683201 1010.8596 85.732559 1008.2244 88.66589 1007.206 C 111.25231 999.36429 137.92121 993.33291 150.01159 993.33291 C 153.12574 993.33291 156.294 992.58356 157.05261 991.6669 C 157.81122 990.75023 159.99541 982.59001 161.90612 973.53408 C 163.81683 964.47815 166.86886 953.9213 168.68933 950.07315 C 170.5098 946.225 171.99987 942.75712 171.99987 942.36807 C 171.99987 940.2314 191.49956 901.4076 194.16784 898.23135 C 195.90926 896.15842 197.33386 893.89823 197.33386 893.20791 C 197.33386 892.51759 199.78732 887.91223 202.78698 882.97549 C 205.78665 878.03875 209.05637 872.05022 210.05261 869.6669 C 211.04885 867.28356 212.40703 865.33291 213.07019 865.33291 C 213.73335 865.33291 217.15203 860.98355 220.66784 855.6669 C 224.18367 850.35023 229.52074 843.03494 232.52917 839.41104 C 235.5376 835.78713 239.19922 831.34561 240.66589 829.5419 C 245.85395 823.16157 254.50197 814.94632 255.24597 815.69033 C 255.66075 816.1051 255.99987 815.71633 255.99987 814.82705 C 255.99987 813.93775 265.44989 803.44282 276.99987 791.50479 C 288.54986 779.56676 304.59923 762.9455 312.66589 754.56729 C 320.73254 746.18909 328.67598 738.13355 330.31628 736.6669 C 331.95659 735.20023 344.2574 722.60021 357.65222 708.6669 C 371.04702 694.73357 387.10429 678.04731 393.33581 671.58682 C 399.56734 665.12632 405.8672 658.54725 407.33386 656.96572 C 419.38282 643.97311 467.43566 595.42934 472.96276 590.6669 C 476.79261 587.3669 479.94261 584.0284 479.96276 583.24893 C 479.98292 582.46947 481.79988 580.10861 483.99987 578.00088 C 486.19987 575.89315 487.99987 573.78943 487.99987 573.32705 C 487.99987 572.86467 493.5691 566.82617 500.37487 559.90908 C 525.62998 534.24091 570.72732 487.66416 593.99987 463.21377 C 625.94288 429.65412 651.66407 404.00088 653.36706 404.00088 C 654.12791 404.00088 655.14509 402.95023 655.62683 401.6669 C 657.46468 396.77094 694.36991 356.7424 724.16198 327.33291 C 741.24805 310.46627 758.25147 293.30822 761.94714 289.20401 C 765.64281 285.09979 772.94341 276.99978 778.1698 271.20401 C 795.87915 251.56533 851.31571 196.35656 854.2362 195.4501 C 855.83295 194.9545 858.28044 192.62514 859.67566 190.27432 C 861.07086 187.92351 865.29873 182.63281 869.07019 178.51846 C 874.40239 172.70144 875.97621 170.06047 874.80456 170.34658 z " />
  </g>
</svg>
