<?xml version="1.0" encoding="UTF-8" standalone="no"?>
<!-- Created with Inkscape (http://www.inkscape.org/) -->

<svg
   xmlns:dc="http://purl.org/dc/elements/1.1/"
   xmlns:cc="http://creativecommons.org/ns#"
   xmlns:rdf="http://www.w3.org/1999/02/22-rdf-syntax-ns#"
   xmlns:svg="http://www.w3.org/2000/svg"
   xmlns="http://www.w3.org/2000/svg"
   xmlns:sodipodi="http://sodipodi.sourceforge.net/DTD/sodipodi-0.dtd"
   xmlns:inkscape="http://www.inkscape.org/namespaces/inkscape"
   width="210mm"
   height="297mm"
   viewBox="0 0 744.09448819 1052.3622047"
   id="svg4331"
   version="1.1"
   inkscape:version="0.91 r"
   sodipodi:docname="younth.svg">
  <defs
     id="defs4333" />
  <sodipodi:namedview
     id="base"
     pagecolor="#ffffff"
     bordercolor="#666666"
     borderopacity="1.0"
     inkscape:pageopacity="0.0"
     inkscape:pageshadow="2"
     inkscape:zoom="0.49497475"
     inkscape:cx="139.23947"
     inkscape:cy="549.00464"
     inkscape:document-units="px"
     inkscape:current-layer="layer1"
     showgrid="false"
     inkscape:window-width="1366"
     inkscape:window-height="721"
     inkscape:window-x="-2"
     inkscape:window-y="-3"
     inkscape:window-maximized="1" />
  <metadata
     id="metadata4336">
    <rdf:RDF>
      <cc:Work
         rdf:about="">
        <dc:format>image/svg+xml</dc:format>
        <dc:type
           rdf:resource="http://purl.org/dc/dcmitype/StillImage" />
        <dc:title></dc:title>
      </cc:Work>
    </rdf:RDF>
  </metadata>
  <g
     inkscape:label="Calque 1"
     inkscape:groupmode="layer"
     id="layer1">
    <g
       id="g7286"
       transform="matrix(3.8837287,0,0,-3.8837287,982.0617,202.29793)">
      <path
         sodipodi:nodetypes="cccccccc"
         inkscape:connector-curvature="0"
         id="rect7242"
         d="m -181.08764,-96.984557 47.91306,0 0,-95.141573 -11.97827,0 -12.48793,72.11705 -11.4686,-72.11705 -11.97826,0 z"
         style="opacity:1;fill:#552200;fill-opacity:1;fill-rule:nonzero;stroke:none;stroke-width:14;stroke-linecap:round;stroke-linejoin:round;stroke-miterlimit:4;stroke-dasharray:none;stroke-dashoffset:0;stroke-opacity:1" />
      <rect
         transform="scale(1,-1)"
         y="7.8547482"
         x="-165.43362"
         height="29.050674"
         width="16.818811"
         id="rect7235"
         style="opacity:1;fill:#ffc99c;fill-opacity:1;fill-rule:nonzero;stroke:none;stroke-width:14;stroke-linecap:round;stroke-linejoin:round;stroke-miterlimit:4;stroke-dasharray:none;stroke-dashoffset:0;stroke-opacity:1" />
      <path
         sodipodi:nodetypes="cscccccccccccccccsccc"
         inkscape:connector-curvature="0"
         id="rect7227"
         d="m -193.80638,-41.068113 -2.27272,-34.657157 c -0.0251,-0.383728 0.0363,-0.75984 0.0555,-1.139332 l -0.0555,0 0,-31.089288 9.1963,0 5.1368,55.859652 -0.57493,-48.774612 25.29968,0 25.29966,0 -0.92173,47.693465 5.13682,-54.778505 9.19628,0 0.34682,31.089288 -0.0555,0 c 0,0 -1.55768,23.927171 -2.21726,35.796489 -3.99707,15.522626 -15.39717,19.621184 -28.69304,21.405003 0,0 -2.80648,-14.170064 -8.0921,-14.170064 -5.28561,0 -8.09211,14.170064 -8.09211,14.170064 -11.56991,-1.445229 -27.47535,-7.941081 -28.69302,-21.405003 z"
         style="opacity:1;fill:#ff5555;fill-opacity:1;fill-rule:nonzero;stroke:none;stroke-width:14;stroke-linecap:round;stroke-linejoin:round;stroke-miterlimit:4;stroke-dasharray:none;stroke-dashoffset:0;stroke-opacity:1" />
      <ellipse
         transform="scale(1,-1)"
         ry="24.700447"
         rx="24.340061"
         cy="-7.7724056"
         cx="-157.02425"
         id="path7233"
         style="opacity:1;fill:#ffc99c;fill-opacity:1;fill-rule:nonzero;stroke:none;stroke-width:14;stroke-linecap:round;stroke-linejoin:round;stroke-miterlimit:4;stroke-dasharray:none;stroke-dashoffset:0;stroke-opacity:1" />
      <path
         sodipodi:nodetypes="sssss"
         inkscape:connector-curvature="0"
         id="ellipse7237"
         d="m -132.68417,11.570568 c 0,-13.6416678 -11.61818,5.571861 -25.06083,5.571861 -13.44265,0 -23.6193,-19.2135288 -23.6193,-5.571861 0,13.641683 10.89741,24.700458 24.34007,24.700458 13.44265,0 24.34006,-11.058775 24.34006,-24.700458 z"
         style="opacity:1;fill:#d40000;fill-opacity:1;fill-rule:nonzero;stroke:none;stroke-width:14;stroke-linecap:round;stroke-linejoin:round;stroke-miterlimit:4;stroke-dasharray:none;stroke-dashoffset:0;stroke-opacity:1" />
      <path
         style="opacity:1;fill:#552200;fill-opacity:1;fill-rule:nonzero;stroke:none;stroke-width:14;stroke-linecap:round;stroke-linejoin:round;stroke-miterlimit:4;stroke-dasharray:none;stroke-dashoffset:0;stroke-opacity:1"
         d="m -132.77521,9.8110501 c 1.12394,-17.6377587 -11.52714,3.5332169 -24.96979,3.5332169 -13.44265,0 -24.9616,-21.5397367 -23.47501,-2.875209 21.36934,11.102628 24.92874,10.313577 48.4448,-0.6580079 z"
         id="path7240"
         inkscape:connector-curvature="0"
         sodipodi:nodetypes="cscc" />
      <path
         sodipodi:nodetypes="ccscc"
         inkscape:connector-curvature="0"
         id="path7245"
         d="m -168.97159,-203.06083 -28.79584,0 c -1.80673,4.3948 5.83587,6.8883 11.04689,9.00962 5.21103,2.12127 9.7972,2.71258 17.74895,2.71258 z"
         style="opacity:1;fill:#aa0000;fill-opacity:1;fill-rule:nonzero;stroke:none;stroke-width:14;stroke-linecap:round;stroke-linejoin:round;stroke-miterlimit:4;stroke-dasharray:none;stroke-dashoffset:0;stroke-opacity:1" />
      <path
         style="opacity:1;fill:#aa0000;fill-opacity:1;fill-rule:nonzero;stroke:none;stroke-width:14;stroke-linecap:round;stroke-linejoin:round;stroke-miterlimit:4;stroke-dasharray:none;stroke-dashoffset:0;stroke-opacity:1"
         d="m -145.16696,-203.03259 28.79584,0 c 1.80672,4.39478 -5.83586,6.8883 -11.04689,9.00962 -5.21103,2.12129 -9.7972,2.71256 -17.74895,2.71256 z"
         id="path7248"
         inkscape:connector-curvature="0"
         sodipodi:nodetypes="ccscc" />
      <path
         sodipodi:nodetypes="ccccc"
         inkscape:connector-curvature="0"
         id="path7954"
         d="m -145.16696,-203.03259 28.79584,0 c 0.22584,0.54935 0.30403,1.06899 0.25779,1.56191 -5.27254,-0.66542 -29.05363,3.88051 -29.05363,-0.0966 z"
         style="opacity:1;fill:#333333;fill-opacity:1;fill-rule:nonzero;stroke:none;stroke-width:14;stroke-linecap:round;stroke-linejoin:round;stroke-miterlimit:4;stroke-dasharray:none;stroke-dashoffset:0;stroke-opacity:1" />
      <path
         style="opacity:1;fill:#333333;fill-opacity:1;fill-rule:nonzero;stroke:none;stroke-width:14;stroke-linecap:round;stroke-linejoin:round;stroke-miterlimit:4;stroke-dasharray:none;stroke-dashoffset:0;stroke-opacity:1"
         d="m -168.97159,-203.06083 -28.79584,0 c -0.22584,0.54935 -0.30403,1.06899 -0.25779,1.56191 5.27254,-0.66542 29.05363,3.88051 29.05363,-0.0966 z"
         id="path7956"
         inkscape:connector-curvature="0"
         sodipodi:nodetypes="ccccc" />
    </g>
  </g>
</svg>
